<svg width="1577" height="433" fill="none" xmlns="http://www.w3.org/2000/svg"><mask id="a" maskUnits="userSpaceOnUse" x="-1" y="0" width="1577" height="433" fill="#000"><path fill="#fff" d="M-1 0h1577v433H-1z"/><path d="M309.2 220.2c7.2 3.733 12.133 8.4 14.8 14 2.933 5.333 3.733 11.2 2.4 17.6-1.333 6.4-4.667 13.067-10 20s-12.4 13.867-21.2 20.8c-9.867 7.733-21.467 14.933-34.8 21.6-13.067 6.4-27.2 11.867-42.4 16.4-14.933 4.533-30.667 8-47.2 10.4a303.591 303.591 0 0 1-49.2 4c-26.933 0-49.2-3.6-66.8-10.8-17.6-7.2-30.933-16.533-40-28-8.8-11.467-13.467-24.133-14-38-.533-14.133 2.8-28 10-41.6C18 213 28.933 200.467 43.6 189c14.933-11.467 33.333-20.533 55.2-27.2 14.133-4 27.6-6.267 40.4-6.8-5.6-1.867-11.333-4.4-17.2-7.6-5.867-3.467-11.2-7.333-16-11.6-4.8-4.267-8.667-8.933-11.6-14-2.667-5.333-3.733-10.933-3.2-16.8 1.067-11.467 4.933-22.133 11.6-32s15.067-18.8 25.2-26.8c10.4-8 22-14.933 34.8-20.8 13.067-6.133 26.267-11.067 39.6-14.8 13.6-4 26.933-6.667 40-8 13.067-1.333 24.933-1.467 35.6-.4 15.467 1.867 27.867 5.2 37.2 10 9.6 4.8 16.267 10.4 20 16.8 3.733 6.133 4.933 12.933 3.6 20.4-1.067 7.2-4.533 14.267-10.4 21.2-5.867 6.667-13.867 12.8-24 18.4-9.867 5.6-21.467 9.867-34.8 12.8-5.6 1.333-9.733 1.867-12.4 1.6-2.4-.533-3.6-1.333-3.6-2.4.267-1.067 1.6-2.267 4-3.6 2.667-1.333 6.267-2.267 10.8-2.8 6.133-.533 12.267-2.8 18.4-6.8 6.133-4 11.467-8.8 16-14.4 4.8-5.867 8.4-12.133 10.8-18.8 2.4-6.667 2.8-12.933 1.2-18.8-1.333-5.867-5.067-10.933-11.2-15.2-5.867-4.533-14.933-7.467-27.2-8.8-15.733-1.6-32.267-.533-49.6 3.2-17.067 3.733-33.067 9.467-48 17.2-14.667 7.467-27.333 16.667-38 27.6C130.4 70.467 124 82.2 121.6 95c-1.867 10.4-.933 18.8 2.8 25.2 3.733 6.133 8.8 11.067 15.2 14.8 6.667 3.733 14 6.533 22 8.4 8.267 1.867 15.733 3.733 22.4 5.6 6.933 1.867 12.533 4 16.8 6.4 4.267 2.4 5.867 6 4.8 10.8-1.333 4-5.2 6.267-11.6 6.8-6.133.267-14.133.267-24 0-9.6-.267-20.4-.267-32.4 0s-24.4 2.133-37.2 5.6c-13.867 3.733-26.133 10.267-36.8 19.6-10.667 9.333-19.067 19.867-25.2 31.6-5.867 11.733-9.067 23.867-9.6 36.4-.533 12.533 2.4 24 8.8 34.4C44 311 54.133 319.533 68 326.2c13.867 6.667 32.267 10 55.2 10 15.467 0 30.667-1.6 45.6-4.8 14.933-3.2 29.067-7.333 42.4-12.4 13.333-5.067 25.733-10.8 37.2-17.2 11.733-6.667 21.867-13.333 30.4-20 7.467-5.867 13.733-11.867 18.8-18 5.333-6.133 9.067-11.733 11.2-16.8 2.4-5.333 3.067-9.867 2-13.6-1.067-4-4.4-6.667-10-8-4.533-1.067-7.333-2.267-8.4-3.6-.8-1.333-.533-2.4.8-3.2 1.333-.8 3.467-1.067 6.4-.8 3.2 0 6.4.8 9.6 2.4Zm82.972 92c-.8 4.533-3.067 8.4-6.8 11.6-3.733 3.2-7.867 4.8-12.4 4.8s-8.133-1.6-10.8-4.8c-2.667-3.2-3.6-7.067-2.8-11.6.533-4.533 2.667-8.4 6.4-11.6 4-3.2 8.267-4.8 12.8-4.8 4.533 0 8.133 1.6 10.8 4.8 2.667 3.2 3.6 7.067 2.8 11.6Zm424.719-62.4c-4.267 8.8-8.534 16.933-12.8 24.4-4 7.467-8.4 14.667-13.2 21.6-4.8 6.667-10.267 13.067-16.4 19.2-6.134 6.133-13.467 12.133-22 18-10.134 6.933-21.334 12.933-33.6 18-12 5.067-24.667 8.667-38 10.8-13.067 2.133-26.8 2.4-41.2.8-14.134-1.6-28.4-5.467-42.8-11.6-16.8-7.2-30.267-16.667-40.4-28.4-9.867-12-17.067-25.333-21.6-40-4.534-14.933-6.667-30.667-6.4-47.2.533-16.533 2.8-32.933 6.8-49.2 4.266-16.267 10-31.867 17.2-46.8 7.2-14.933 15.466-28.267 24.8-40-1.6-6.133-2.934-12.933-4-20.4a336.102 336.102 0 0 1-2.4-23.6c-.267-8-.134-16 .4-24 .8-8.267 2.266-16.133 4.4-23.6.266-1.6.933-2.933 2-4 1.333-1.067 2.4-1.6 3.2-1.6 1.066 0 1.866.667 2.4 2 .8 1.067.933 2.933.4 5.6-2.134 12.8-2.667 26-1.6 39.6 1.066 13.333 2.666 25.467 4.8 36.4 21.6-28 46.8-48.133 75.6-60.4 28.8-12.267 59.066-16.533 90.8-12.8 19.466 2.133 35.733 6.8 48.8 14 13.066 7.2 23.066 15.867 30 26 6.933 9.867 11.066 20.8 12.4 32.8 1.333 12 0 24-4 36-3.734 11.733-10 22.933-18.8 33.6-8.534 10.667-19.334 19.733-32.4 27.2-13.067 7.467-28.134 12.8-45.2 16-17.067 3.2-35.867 3.333-56.4.4-20.8-2.933-40-9.6-57.6-20-17.334-10.4-31.2-26.4-41.6-48-2.4 3.2-5.867 10-10.4 20.4-4.534 10.133-8.8 22.133-12.8 36s-7.067 28.933-9.2 45.2c-2.134 16-1.867 31.333.8 46 2.666 14.667 8.266 27.867 16.8 39.6 8.533 11.733 21.466 20.267 38.8 25.6 21.6 6.4 44.266 8.133 68 5.2 24-2.667 46-10 66-22 8.8-5.067 16.266-10.533 22.4-16.4 6.4-5.867 12.133-12.133 17.2-18.8a159.34 159.34 0 0 0 13.6-21.2c4-7.733 8.133-15.867 12.4-24.4 1.6-3.467 3.333-4.667 5.2-3.6 1.866 1.067 1.733 3.6-.4 7.6Zm-60-222c-14.934-2.133-29.867-1.467-44.8 2-14.667 3.467-28.934 9.2-42.8 17.2-13.867 8-27.067 18-39.6 30-12.267 12-23.334 25.6-33.2 40.8 9.066 22.933 22 40 38.8 51.2 17.066 10.933 36.533 17.6 58.4 20 24 2.667 44.933.933 62.8-5.2 17.866-6.133 32.4-14.667 43.6-25.6 11.2-11.2 18.933-23.733 23.2-37.6 4.266-13.867 4.666-27.2 1.2-40-3.2-12.8-10.4-24-21.6-33.6-11.2-9.867-26.534-16.267-46-19.2Zm251.589 224.4c-1.6 3.733-4.14 9.467-7.6 17.2-3.472 7.733-7.872 15.6-13.205 23.6a103.07 103.07 0 0 1-18 20.8c-6.933 5.867-14.533 8.8-22.8 8.8-5.867 0-10.933-.933-15.2-2.8-4-1.867-7.2-4.267-9.6-7.2-5.6 4-11.333 7.333-17.2 10-5.6 2.4-11.333 3.467-17.2 3.2-7.467-.267-13.333-2.4-17.6-6.4-4.267-4.267-7.2-9.733-8.8-16.4-1.333-6.667-1.467-14.133-.4-22.4 1.333-8.533 3.867-17.2 7.6-26 3.733-9.067 8.4-17.6 14-25.6 5.867-8.267 12.133-15.333 18.8-21.2 6.933-6.133 13.867-10.933 20.8-14.4 7.2-3.467 14.133-5.067 20.8-4.8 7.467 0 13.333 2.133 17.6 6.4 4.533 4.267 7.467 9.733 8.8 16.4 1.6 6.667 1.733 14.267.4 22.8-1.067 8.267-3.467 16.8-7.2 25.6-2.933 6.933-7.333 14.667-13.2 23.2-5.867 8.533-12.533 16.267-20 23.2 3.467 6.667 9.6 10 18.4 10 6.4 0 12.4-2.667 18-8s10.667-11.6 15.2-18.8c4.8-7.2 8.933-14.533 12.4-22 3.733-7.733 6.805-14 9.205-18.8 1.06-2.133 2.66-2.8 4.8-2 2.13.8 2.53 2.667 1.2 5.6Zm-57.205-53.6c-4.267-1.067-8.933-.4-14 2-4.8 2.133-9.733 5.6-14.8 10.4-5.067 4.8-10 10.667-14.8 17.6-4.533 6.667-8.533 13.867-12 21.6-3.733 8-6.8 15.6-9.2 22.8-2.133 7.2-3.467 13.733-4 19.6-.533 5.6-.133 10.4 1.2 14.4 1.333 3.733 3.733 6.133 7.2 7.2 3.733 1.067 7.867.667 12.4-1.2 4.8-1.867 9.6-4.8 14.4-8.8-4.267-6.133-6.4-12.533-6.4-19.2.267-4.533 1.333-8.4 3.2-11.6 2.133-3.467 5.6-5.2 10.4-5.2 3.467 0 6.267 1.2 8.4 3.6 2.4 2.4 3.6 5.067 3.6 8 0 .8-.133 1.6-.4 2.4 0 .533-.133 1.2-.4 2 4.267-6.133 8.267-13.2 12-21.2 3.733-8 6.667-15.6 8.8-22.8 2.133-7.467 3.333-14 3.6-19.6.533-5.867 0-10.667-1.6-14.4-1.6-4-4.133-6.533-7.6-7.6Zm-125.2 66.8c-1.6 3.467-2.933 6.267-4 8.4-1.067 2.133-2.267 4.8-3.6 8-1.333 3.2-3.2 7.467-5.6 12.8-2.4 5.333-5.733 12.933-10 22.8-1.6 2.933-3.467 4.667-5.6 5.2-2.133.533-5.333.8-9.6.8-2.933.267-5.333.4-7.2.4-2.133 0-4.267.667-6.4 2 9.6-19.2 18.667-38.133 27.2-56.8a1070.512 1070.512 0 0 1 28-55.2c5.067-9.6 9.467-16.267 13.2-20 3.733-3.733 8.8-5.467 15.2-5.2 2.667.267 5.333.8 8 1.6 2.933.533 5.867.533 8.8 0-2.933 1.6-6.533 5.067-10.8 10.4-4 5.333-8.267 11.6-12.8 18.8a800.444 800.444 0 0 0-13.2 23.2c-4.267 8-8.133 15.6-11.6 22.8Zm73.2-24c-2.133 5.067-5.467 10-10 14.8-4.533 4.8-9.867 6.933-16 6.4-5.333-.533-10.667-2.133-16-4.8-5.333-2.933-10.667-4.667-16-5.2-2.933-.267-5.6.533-8 2.4-2.4 1.6-4.267 3.6-5.6 6 0 .533-.4.933-1.2 1.2h-2.4c-.8-.267-1.467-.4-2-.4-.533-.267-.667-.667-.4-1.2 1.067-2.4 2.533-4.8 4.4-7.2 1.867-2.4 3.867-4.533 6-6.4 2.133-2.133 4.533-3.733 7.2-4.8 2.667-1.067 5.467-1.467 8.4-1.2 2.933 0 5.733.533 8.4 1.6 2.667.8 5.2 1.733 7.6 2.8 2.667 1.067 5.2 2.133 7.6 3.2 2.667.8 5.333 1.333 8 1.6 3.733.533 6.667 0 8.8-1.6 2.4-1.867 4.267-4.267 5.6-7.2.533-.8 1.733-1.067 3.6-.8 1.867 0 2.533.267 2 .8Zm68.95 169.2c-4 8.533-7.733 14.267-11.2 17.2-3.733 2.933-8.933 4.133-15.6 3.6a42.544 42.544 0 0 1-8-1.6c-2.933-.8-5.867-.933-8.8-.4 1.6-1.6 4.667-6.267 9.2-14 4.533-7.467 9.733-16.8 15.6-28 5.867-10.933 12.133-22.933 18.8-36 6.667-13.067 12.8-25.867 18.4-38.4 5.867-12.533 10.8-24 14.805-34.4 4.26-10.667 7.06-19.067 8.4-25.2-2.14 3.467-4.54 5.733-7.2 6.8-2.672.8-3.338-.267-2-3.2 1.06-2.133 2.4-5.067 4-8.8 1.6-3.733 2.93-6.8 4-9.2 1.86-4.267 3.46-9.2 4.8-14.8 1.6-5.6 2.53-10.933 2.8-16 .53-5.067.4-9.333-.4-12.8-.8-3.733-2.4-5.867-4.8-6.4a500.76 500.76 0 0 0 8.4-1.6c2.13-.533 4.26-.8 6.4-.8 2.4-.267 4-.533 4.8-.8 2.93-.267 5.33-.4 7.2-.4 1.86-.267 3.33 0 4.4.8 1.06.8 1.73 2.533 2 5.2.53 2.4.8 6 .8 10.8 0 4-.67 8.8-2 14.4-1.07 5.333-2.4 10.933-4 16.8-1.6 5.867-3.34 11.6-5.2 17.2-1.87 5.6-3.6 10.533-5.2 14.8 4-5.067 9.06-10.933 15.2-17.6 6.13-6.933 12.26-13.067 18.4-18.4 4.8-4.267 10.66-8.8 17.6-13.6 7.2-5.067 14.4-9.467 21.6-13.2 7.2-4 13.86-7.067 20-9.2 6.4-2.133 11.33-2.667 14.8-1.6-8 14.4-15.34 28.133-22 41.2-2.94 5.6-5.87 11.333-8.8 17.2-2.67 5.867-5.2 11.6-7.6 17.2-2.4 5.333-4.54 10.4-6.4 15.2-1.6 4.8-2.67 8.933-3.21 12.4-1.59 8.267-1.59 13.733 0 16.4 1.61 2.4 3.74 3.6 6.41 3.6 5.06 0 10.4-2.8 16-8.4 5.6-5.6 10.93-12.133 16-19.6 5.06-7.733 9.6-15.467 13.6-23.2 4-7.733 7.06-13.733 9.2-18 1.6-3.467 3.33-4.667 5.2-3.6 2.13.8 2.26 3.2.4 7.2-2.94 6.133-6.67 13.467-11.2 22-4.27 8.533-9.2 16.8-14.8 24.8-5.6 7.733-11.74 14.4-18.4 20-6.67 5.6-13.87 8.4-21.6 8.4-3.47 0-7.07-.667-10.8-2-3.74-1.333-6.94-3.733-9.6-7.2-2.4-3.733-3.87-8.533-4.4-14.4-.54-6.133.66-13.867 3.6-23.2 1.6-5.333 4.26-11.333 8-18 3.73-6.933 8.4-14.933 14-24 2.4-4 3.73-7.467 4-10.4.26-2.933-.8-4.667-3.2-5.2-2.14-.533-5.6.533-10.4 3.2-4.8 2.667-11.07 7.6-18.8 14.8-3.47 3.2-7.47 6.933-12 11.2-4.27 4.267-8.94 9.6-14.01 16-4.79 6.133-9.73 13.467-14.79 22-5.07 8.533-10 18.533-14.8 30l-37.605 93.2Zm328.955-161.2c-3.2 6.933-6.93 14.667-11.2 23.2a190.574 190.574 0 0 1-14.4 23.6c-5.33 7.467-11.2 13.733-17.6 18.8-6.4 5.067-13.2 7.6-20.4 7.6-4.53 0-8.53-1.067-12-3.2-3.46-2.4-6.13-5.733-8-10-1.6-4.533-2.4-10-2.4-16.4 0-6.4 1.34-13.6 4-21.6-3.46 6.133-7.33 12.267-11.6 18.4-4 5.867-8.4 11.333-13.2 16.4-4.53 4.8-9.33 8.8-14.4 12-5.06 2.933-10 4.4-14.8 4.4-2.13 0-4.53-.133-7.2-.4-2.4-.533-4.8-1.467-7.2-2.8-2.4-1.333-4.66-3.2-6.8-5.6-1.86-2.4-3.2-5.467-4-9.2-.8-4.267-.93-8.4-.4-12.4.54-4 1.47-7.867 2.8-11.6 1.6-4 3.34-7.733 5.2-11.2 2.14-3.733 4.14-7.467 6-11.2-1.33 0-2.66-.4-4-1.2-1.06-.8-.93-2.533.4-5.2 1.34-2.133 2.54-4.4 3.6-6.8 1.07-2.4 2.27-4.8 3.6-7.2l12-23.2c4-7.733 7.47-14.667 10.4-20.8 1.6-3.2 3.6-5.333 6-6.4 2.67-1.333 5.87-2 9.6-2h24.4c-2.4 1.6-4.53 3.333-6.4 5.2-1.86 1.6-3.86 3.6-6 6-1.86 2.4-3.86 5.333-6 8.8-2.13 3.467-4.53 8-7.2 13.6-3.73 6.933-7.06 13.6-10 20-2.93 5.6-5.73 11.333-8.4 17.2-2.66 5.867-4.93 10.667-6.8 14.4-4.8 10.4-7.46 19.067-8 26-.53 6.933.4 11.867 2.8 14.8 2.67 2.667 6.54 3.067 11.6 1.2 5.07-2.133 10.8-6.933 17.2-14.4 5.6-6.4 11.07-14 16.4-22.8 5.6-8.8 10.94-17.867 16-27.2a936.47 936.47 0 0 0 14.4-28.4c4.8-9.333 9.07-18 12.8-26 1.6-3.2 3.6-5.333 6-6.4 2.67-1.333 5.87-2 9.6-2h21.6c-2.93 2.4-5.46 4.667-7.6 6.8-2.13 1.867-4.26 4.267-6.4 7.2-1.86 2.667-3.86 6.133-6 10.4-2.13 4-4.66 9.067-7.6 15.2a562.43 562.43 0 0 0-8.8 17.6c-2.66 5.867-5.33 11.733-8 17.6-2.4 5.6-4.53 10.933-6.4 16-1.86 4.8-3.06 8.933-3.6 12.4-1.86 8.533-1.86 14.667 0 18.4 2.14 3.467 4.67 5.333 7.6 5.6 4.8 0 9.6-2.133 14.4-6.4 5.07-4.267 9.87-9.6 14.4-16 4.54-6.667 8.8-13.867 12.8-21.6 4.27-8 8.14-15.6 11.6-22.8 1.6-3.467 3.34-4.667 5.2-3.6 2.14.8 2.27 3.2.4 7.2Zm8.17 16c-1.6 3.467-2.93 6.267-4 8.4-1.06 2.133-2.26 4.8-3.6 8-1.33 3.2-3.2 7.467-5.6 12.8-2.4 5.333-5.73 12.933-10 22.8-1.6 2.933-3.46 4.667-5.6 5.2-2.13.533-5.33.8-9.6.8-2.93.267-5.33.4-7.2.4-2.13 0-4.26.667-6.4 2 9.6-19.2 18.67-38.133 27.2-56.8a1076.14 1076.14 0 0 1 28-55.2c5.07-9.6 9.47-16.267 13.2-20 3.74-3.733 8.8-5.467 15.2-5.2 2.67.267 5.34.8 8 1.6 2.94.533 5.87.533 8.8 0-2.93 1.6-6.53 5.067-10.8 10.4-4 5.333-8.26 11.6-12.8 18.8a834.69 834.69 0 0 0-13.2 23.2c-4.26 8-8.13 15.6-11.6 22.8Zm70.8 0c-1.86 3.733-3.86 8.4-6 14-1.86 5.333-3.2 10.667-4 16-.8 5.067-.66 9.467.4 13.2 1.34 3.733 4.4 5.6 9.2 5.6 5.07 0 10.27-2.8 15.6-8.4 5.6-5.6 10.8-12.133 15.6-19.6 4.8-7.467 9.07-14.933 12.8-22.4 4-7.733 7.07-13.733 9.2-18 1.6-3.467 3.34-4.667 5.2-3.6 2.14.8 2.27 3.2.4 7.2-2.93 6.133-6.66 13.467-11.2 22-4.26 8.533-9.2 16.8-14.8 24.8-5.6 7.733-11.73 14.4-18.4 20-6.66 5.6-13.86 8.4-21.6 8.4-3.2 0-6.4-.8-9.6-2.4-2.93-1.867-5.73-4.667-8.4-8.4-2.13-3.467-3.86-8.667-5.2-15.6-1.33-6.933-.8-13.467 1.6-19.6 3.2-6.667 6-12.533 8.4-17.6 2.4-5.333 4.8-10.4 7.2-15.2 2.4-4.8 4.94-9.733 7.6-14.8 2.67-5.067 5.74-10.8 9.2-17.2 5.07-9.6 9.47-16.267 13.2-20 3.74-3.733 8.8-5.467 15.2-5.2 2.67.267 5.34.8 8 1.6 2.94.533 5.87.533 8.8 0-2.93 1.6-6.53 5.067-10.8 10.4-4 5.333-8.26 11.6-12.8 18.8a834.69 834.69 0 0 0-13.2 23.2c-4.26 8-8.13 15.6-11.6 22.8Zm-6.8-22c-1.6 4.533-4.4 8.933-8.4 13.2-4 4-8.66 5.733-14 5.2-4.8-.267-9.6-1.6-14.4-4-4.53-2.667-9.06-4.133-13.6-4.4-2.66-.267-5.06.4-7.2 2-2.13 1.333-3.73 3.067-4.8 5.2-.26.533-1.33.8-3.2.8-1.86 0-2.53-.4-2-1.2 2.14-4 5.07-8 8.8-12 4-4 8.67-5.733 14-5.2 5.07.267 9.74 1.6 14 4 4.54 2.133 9.07 3.467 13.6 4 3.2.533 5.74 0 7.6-1.6 1.87-1.6 3.47-3.6 4.8-6 .54-.533 1.6-.8 3.2-.8s2.14.267 1.6.8Zm203.94 6c-2.93 6.133-6.67 13.333-11.2 21.6a220.82 220.82 0 0 1-14.4 24c-5.33 7.733-11.07 14.4-17.2 20-5.87 5.333-11.73 8.267-17.6 8.8-3.2.267-6.67-.267-10.4-1.6-3.73-1.6-6.8-4.267-9.2-8-2.4-4-3.87-9.333-4.4-16-.27-6.933 1.07-15.6 4-26-3.2 5.333-7.33 11.6-12.4 18.8-5.07 6.933-10.53 13.2-16.4 18.8-7.73 7.467-14.93 11.867-21.6 13.2-6.4 1.333-11.87.4-16.4-2.8-4.53-3.467-7.87-8.8-10-16-1.87-7.2-2.13-15.6-.8-25.2 1.33-9.867 4.53-20.533 9.6-32 5.33-11.733 13.07-23.6 23.2-35.6 5.87-7.2 12.93-13.333 21.2-18.4 8.53-5.067 17.07-8.667 25.6-10.8 8.8-2.133 17.2-2.4 25.2-.8 8.27 1.6 15.2 5.467 20.8 11.6 2.93 2.933 3.73 5.733 2.4 8.4-1.07 2.667-3.33 3.733-6.8 3.2-2.13-7.467-6.53-12-13.2-13.6-6.4-1.6-13.33-.4-20.8 3.6-9.07 5.067-18.4 12.933-28 23.6-9.6 10.4-18 21.6-25.2 33.6-.8 1.333-2 3.467-3.6 6.4-1.6 2.933-3.33 6.4-5.2 10.4a280.56 280.56 0 0 0-4.8 12c-1.33 4-2.27 7.867-2.8 11.6-1.07 6.933-.67 12 1.2 15.2 2.13 3.2 4.93 4.8 8.4 4.8 3.73 0 8-1.467 12.8-4.4 4.8-3.2 9.6-7.6 14.4-13.2a231.02 231.02 0 0 0 18.8-26.8 629.33 629.33 0 0 0 16.8-29.2c4.53-8.533 8.53-15.067 12-19.6 3.73-4.533 8.8-6.533 15.2-6 2.67.267 5.33.8 8 1.6 2.93.533 5.87.533 8.8 0-2.13 2.133-5.07 6.133-8.8 12-3.47 5.6-7.2 12.133-11.2 19.6-3.73 7.2-7.2 14.667-10.4 22.4-3.2 7.733-5.47 14.667-6.8 20.8-3.2 16-1.87 24 4 24 4.27.267 8.93-2.267 14-7.6s10-11.733 14.8-19.2c5.07-7.467 9.6-14.933 13.6-22.4 4-7.733 7.07-13.733 9.2-18 1.87-3.467 3.73-4.8 5.6-4 1.87.8 1.87 3.2 0 7.2Z"/></mask><path d="m309.2 220.2.46-.888-.006-.003-.007-.003-.447.894Zm14.8 14-.903.43.013.026.014.026.876-.482Zm2.4 17.6.979.204-.979-.204Zm-10 20 .793.61-.793-.61Zm-21.2 20.8.617.787.002-.002-.619-.785Zm-34.8 21.6.44.898.007-.004-.447-.894ZM218 330.6l-.286-.958-.004.001.29.957ZM170.8 341l-.144-.99-.009.002-.009.001.162.987Zm-116-6.8.379-.926-.379.926Zm-40-28-.793.609.004.006.005.005.784-.62Zm-14-38-1 .038 1-.038Zm10-41.6.884.468-.884-.468ZM43.6 189l-.609-.793-.007.005.616.788Zm55.2-27.2-.272-.962-.01.003-.01.002.292.957Zm40.4-6.8.042.999.274-1.948-.316.949Zm-17.2-7.6-.509.861.015.009.015.008.479-.878Zm-16-11.6.664-.747-.664.747Zm-11.6-14-.894.447.013.028.016.026.865-.501ZM91.2 105l-.996-.093v.002l.996.091Zm11.6-32 .829.56-.829-.56ZM128 46.2l-.61-.793-.01.008.62.785Zm34.8-20.8.417.91.008-.005-.425-.905Zm39.6-14.8.27.963.012-.004-.282-.959Zm40-8 .102.995-.102-.995Zm35.6-.4.12-.993-.01-.001-.01-.001-.1.995Zm37.2 10-.457.89.01.004.447-.894Zm20 16.8-.864.504.005.008.005.008.854-.52Zm3.6 20.4-.984-.176-.003.015-.002.014.989.147Zm-10.4 21.2.751.66.006-.007.006-.007-.763-.646Zm-24 18.4-.484-.875-.01.005.494.87Zm-34.8 12.8-.215-.977-.008.002-.009.002.232.973Zm-12.4 1.6-.217.976.058.013.06.006.099-.995Zm-3.6-2.4-.97-.243-.03.12V101h1Zm4-3.6-.447-.894-.02.01-.019.01.486.874Zm10.8-2.8-.087-.996-.015.001-.015.002.117.993Zm18.4-6.8.546.838-.546-.838Zm16-14.4-.774-.633-.003.004.777.629Zm10.8-18.8.941.339-.941-.339Zm1.2-18.8-.975.222.005.02.005.021.965-.263Zm-11.2-15.2-.611.791.019.016.021.014.571-.821Zm-27.2-8.8.108-.994h-.007l-.101.994ZM226.8 15l-.211-.978-.003.001.214.977Zm-48 17.2.454.891.006-.003-.46-.888Zm-38 27.6-.716-.698.716.698ZM121.6 95l-.983-.184-.001.007.984.177Zm2.8 25.2-.864.504.005.008.005.008.854-.52Zm15.2 14.8-.504.864.008.004.007.004.489-.872Zm22 8.4-.227.974.007.001.22-.975ZM184 149l-.27.963.01.003.26-.966Zm16.8 6.4-.49.872.49-.872Zm4.8 10.8.949.316.016-.049.011-.05-.976-.217ZM194 173l.043.999.02-.001.02-.001L194 173Zm-24 0-.028 1h.001l.027-1Zm-32.4 0-.022-1 .022 1Zm-37.2 5.6.26.966.001-.001-.261-.965Zm-36.8 19.6-.659-.753.659.753Zm-25.2 31.6-.886-.463-.004.008-.004.008.894.447Zm-9.6 36.4 1 .043-1-.043Zm8.8 34.4-.852.524.852-.524ZM68 326.2l-.433.901.433-.901Zm100.8 5.2.21.978-.21-.978Zm42.4-12.4-.355-.935.355.935Zm37.2-17.2.487.873.007-.004-.494-.869Zm30.4-20 .616.788.002-.002-.618-.786Zm18.8-18-.755-.656-.008.009-.008.01.771.637Zm11.2-16.8-.912-.41-.005.011-.005.011.922.388Zm2-13.6-.966.258.002.008.003.009.961-.275Zm-10-8 .232-.973h-.003l-.229.973Zm-8.4-3.6-.857.514.034.058.042.053.781-.625Zm7.2-4-.091.996.046.004h.045v-1Zm9.14 3.288c7.066 3.664 11.809 8.192 14.357 13.542l1.806-.86c-2.786-5.85-7.909-10.655-15.243-14.458l-.92 1.776Zm14.384 13.594c2.809 5.108 3.586 10.729 2.297 16.914l1.958.408c1.378-6.615.554-12.727-2.503-18.286l-1.752.964Zm2.297 16.914c-1.294 6.211-4.543 12.742-9.814 19.594l1.586 1.22c5.395-7.015 8.813-13.817 10.186-20.406l-1.958-.408Zm-9.814 19.594c-5.271 6.853-12.274 13.729-21.026 20.624l1.238 1.571c8.848-6.97 15.978-13.961 21.374-20.975l-1.586-1.22Zm-21.024 20.623c-9.805 7.685-21.346 14.85-34.63 21.493l.894 1.788c13.383-6.691 25.042-13.925 34.97-21.707l-1.234-1.574Zm-34.623 21.489c-13.013 6.374-27.094 11.821-42.246 16.34l.572 1.916c15.248-4.547 29.433-10.034 42.554-16.46l-.88-1.796Zm-42.25 16.341c-14.883 4.518-30.567 7.974-47.054 10.367l.288 1.98c16.579-2.407 32.362-5.884 47.346-10.433l-.58-1.914Zm-47.072 10.37A302.608 302.608 0 0 1 121.6 344v2c16.587 0 33.041-1.338 49.362-4.013l-.324-1.974ZM121.6 344c-26.853 0-48.98-3.591-66.421-10.726l-.758 1.852C72.181 342.391 94.587 346 121.6 346v-2Zm-66.421-10.726c-17.488-7.153-30.662-16.397-39.595-27.694l-1.568 1.24c9.2 11.637 22.693 21.059 40.405 28.306l.758-1.852Zm-39.586-27.683c-8.68-11.31-13.269-23.779-13.794-37.429l-1.998.076c.541 14.083 5.285 26.947 14.206 38.571l1.586-1.218ZM1.8 268.162c-.526-13.942 2.76-27.635 9.885-41.094l-1.768-.936C2.641 239.873-.74 253.913-.199 268.238l1.998-.076Zm9.885-41.094c7.122-13.453 17.953-25.882 32.532-37.28l-1.232-1.576c-14.755 11.536-25.79 24.173-33.068 37.92l1.768.936Zm32.525-37.275c14.82-11.38 33.107-20.398 54.883-27.036l-.584-1.914c-21.957 6.695-40.47 15.81-55.517 27.364l1.218 1.586Zm54.863-27.031c14.069-3.982 27.458-6.233 40.17-6.763l-.084-1.998c-12.888.537-26.433 2.819-40.63 6.837l.544 1.924Zm40.444-8.711c-5.537-1.845-11.216-4.354-17.037-7.529l-.958 1.756c5.912 3.225 11.7 5.783 17.363 7.671l.632-1.898Zm-17.007-7.512c-5.815-3.436-11.096-7.265-15.845-11.486l-1.328 1.494c4.851 4.312 10.237 8.216 16.155 11.714l1.018-1.722Zm-15.845-11.486c-4.728-4.203-8.524-8.788-11.399-13.754l-1.73 1.002c2.991 5.168 6.929 9.916 11.801 14.246l1.328-1.494Zm-11.37-13.7c-2.584-5.169-3.614-10.583-3.098-16.262l-1.992-.182c-.55 6.055.553 11.841 3.302 17.338l1.788-.894Zm-3.098-16.26c1.05-11.294 4.857-21.8 11.433-31.533l-1.658-1.12c-6.757 10.001-10.684 20.828-11.767 32.467l1.992.186Zm11.433-31.533c6.604-9.775 14.931-18.634 24.991-26.575l-1.24-1.57c-10.207 8.059-18.68 17.066-25.409 27.025l1.658 1.12Zm24.981-26.567c10.336-7.951 21.87-14.846 34.607-20.684l-.834-1.818c-12.863 5.896-24.529 12.867-34.993 20.916l1.22 1.586Zm34.615-20.688c13.019-6.11 26.167-11.024 39.445-14.742l-.54-1.926c-13.388 3.749-26.64 8.702-39.755 14.858l.85 1.81Zm39.457-14.746c13.546-3.984 26.819-6.638 39.82-7.964l-.203-1.99c-13.133 1.34-26.527 4.02-40.181 8.036l.564 1.918Zm39.82-7.964c13.014-1.328 24.812-1.459 35.399-.4l.199-1.99c-10.747-1.075-22.682-.939-35.801.4l.203 1.99Zm35.378-.402c15.401 1.858 27.673 5.17 36.863 9.896l.914-1.778c-9.476-4.874-22.004-8.23-37.537-10.104l-.24 1.986Zm36.873 9.901c9.5 4.75 15.983 10.237 19.583 16.41l1.728-1.008c-3.866-6.627-10.717-12.34-20.417-17.19l-.894 1.788Zm19.593 16.426c3.599 5.912 4.763 12.463 3.47 19.704l1.968.352c1.374-7.692.138-14.742-3.73-21.096l-1.708 1.04Zm3.465 19.733c-1.034 6.975-4.398 13.875-10.174 20.701l1.526 1.292c5.958-7.04 9.526-14.274 10.626-21.7l-1.978-.293ZM327.649 69.94c-5.771 6.559-13.671 12.625-23.733 18.186l.968 1.75c10.205-5.64 18.305-11.84 24.267-18.614l-1.502-1.322ZM303.906 88.13c-9.764 5.542-21.266 9.777-34.521 12.693l.43 1.954c13.412-2.951 25.109-7.25 35.079-12.907l-.988-1.74Zm-34.538 12.697c-5.586 1.33-9.58 1.827-12.068 1.578l-.199 1.99c2.844.285 7.118-.286 12.731-1.622l-.464-1.946Zm-11.951 1.597c-1.152-.256-1.913-.556-2.362-.856-.43-.287-.455-.481-.455-.568h-2c0 .979.575 1.719 1.345 2.232.751.5 1.79.867 3.038 1.144l.434-1.952Zm-2.847-1.181c.063-.254.295-.657.899-1.2.589-.53 1.452-1.122 2.617-1.769l-.972-1.748c-1.235.686-2.239 1.361-2.983 2.03-.73.657-1.298 1.388-1.501 2.201l1.94.486Zm3.477-2.949c2.524-1.261 5.997-2.175 10.47-2.7l-.234-1.987c-4.594.54-8.32 1.494-11.13 2.899l.894 1.788Zm10.44-2.698c6.325-.55 12.614-2.886 18.859-6.958l-1.092-1.676c-6.022 3.927-12 6.125-17.941 6.642l.174 1.992Zm18.859-6.958c6.22-4.056 11.631-8.926 16.231-14.609l-1.554-1.258c-4.467 5.517-9.722 10.247-15.769 14.191l1.092 1.676Zm16.228-14.605c4.867-5.948 8.526-12.313 10.967-19.094l-1.882-.678c-2.359 6.553-5.9 12.72-10.633 18.506l1.548 1.266Zm10.967-19.094c2.458-6.827 2.886-13.306 1.224-19.402l-1.93.526c1.538 5.637 1.166 11.692-1.176 18.198l1.882.678Zm1.234-19.36c-1.401-6.166-5.318-11.427-11.604-15.8l-1.142 1.642c5.98 4.16 9.53 9.032 10.796 14.6l1.95-.443Zm-11.564-15.77c-6.079-4.698-15.362-7.662-27.703-9.003l-.216 1.988c12.192 1.325 21.043 4.229 26.697 8.597l1.222-1.582Zm-27.71-9.004c-15.849-1.612-32.488-.535-49.912 3.217l.422 1.956c17.243-3.714 33.67-4.771 49.288-3.183l.202-1.99Zm-49.915 3.218c-17.149 3.751-33.232 9.514-48.246 17.289l.92 1.776c14.852-7.692 30.769-13.396 47.754-17.111l-.428-1.954Zm-48.24 17.286c-14.756 7.512-27.513 16.775-38.262 27.793l1.432 1.396c10.585-10.849 23.161-19.986 37.738-27.407l-.908-1.782Zm-38.262 27.793c-10.517 10.787-17.025 22.693-19.467 35.714l1.966.368c2.358-12.579 8.65-24.14 18.933-34.686l-1.432-1.396Zm-19.468 35.721c-1.891 10.536-.975 19.203 2.92 25.881l1.728-1.008c-3.572-6.122-4.522-14.255-2.68-24.52l-1.968-.353Zm2.93 25.897c3.822 6.28 9.011 11.329 15.55 15.144l1.008-1.728c-6.261-3.652-11.206-8.469-14.85-14.456l-1.708 1.04Zm15.565 15.152c6.755 3.783 14.177 6.615 22.262 8.502l.454-1.948c-7.915-1.847-15.16-4.614-21.738-8.299l-.978 1.745Zm22.269 8.503c8.253 1.864 15.703 3.727 22.35 5.588l.54-1.926c-6.687-1.872-14.17-3.743-22.45-5.612l-.44 1.95Zm22.36 5.591c6.887 1.854 12.401 3.961 16.57 6.306l.98-1.744c-4.364-2.455-10.05-4.614-17.03-6.494l-.52 1.932Zm16.57 6.306c1.992 1.12 3.283 2.474 3.976 4.034.694 1.56.836 3.433.338 5.677l1.952.434c.568-2.557.444-4.883-.462-6.923-.907-2.04-2.549-3.686-4.824-4.966l-.98 1.744Zm4.341 9.612c-1.145 3.436-4.495 5.6-10.734 6.119l.166 1.994c6.561-.547 10.945-2.917 12.466-7.481l-1.898-.632Zm-10.694 6.117c-6.101.265-14.075.266-23.93-.001l-.054 2c9.878.267 17.904.267 24.07-.001l-.086-1.998ZM170.028 172c-9.62-.267-20.437-.267-32.45 0l.044 2c11.987-.267 22.77-.267 32.35 0l.056-2Zm-32.45 0c-12.089.269-24.569 2.149-37.439 5.635l.522 1.93c12.73-3.447 25.05-5.301 36.961-5.565l-.044-2Zm-37.438 5.634c-14.012 3.773-26.415 10.378-37.199 19.813l1.317 1.506c10.55-9.232 22.68-15.693 36.402-19.387l-.52-1.932Zm-37.199 19.813c-10.753 9.409-19.233 20.039-25.427 31.89l1.772.926c6.072-11.616 14.392-22.053 24.972-31.31l-1.316-1.506Zm-25.435 31.906c-5.927 11.853-9.166 24.124-9.705 36.804l1.998.086c.527-12.387 3.689-24.383 9.495-35.996l-1.788-.894ZM27.8 266.157c-.542 12.727 2.44 24.392 8.947 34.967l1.704-1.048c-6.293-10.225-9.178-21.494-8.653-33.833l-1.998-.086Zm8.947 34.967c6.524 10.601 16.824 19.249 30.819 25.977l.866-1.802c-13.738-6.605-23.705-15.024-29.981-25.223l-1.704 1.048Zm30.819 25.977c14.051 6.756 32.617 10.099 55.633 10.099v-2c-22.851 0-41.085-3.324-54.767-9.901l-.866 1.802ZM123.2 337.2c15.536 0 30.806-1.607 45.81-4.822l-.42-1.956c-14.863 3.185-29.993 4.778-45.39 4.778v2Zm45.81-4.822c14.979-3.21 29.161-7.357 42.545-12.443l-.71-1.87c-13.283 5.048-27.367 9.167-42.255 12.357l.42 1.956Zm42.545-12.443c13.375-5.083 25.82-10.836 37.332-17.262l-.974-1.746c-11.421 6.374-23.777 12.087-37.068 17.138l.71 1.87Zm37.339-17.266c11.766-6.685 21.942-13.378 30.522-20.081l-1.232-1.576c-8.486 6.63-18.577 13.27-30.278 19.919l.988 1.738Zm30.524-20.083c7.512-5.902 13.833-11.951 18.953-18.149l-1.542-1.274c-5.013 6.069-11.226 12.02-18.647 17.851l1.236 1.572Zm18.937-18.13c5.373-6.179 9.178-11.869 11.367-17.068l-1.844-.776c-2.077 4.934-5.739 10.444-11.033 16.532l1.51 1.312Zm11.357-17.046c2.45-5.443 3.207-10.234 2.05-14.285l-1.923.55c.975 3.416.399 7.692-1.951 12.915l1.824.82Zm2.054-14.268c-1.197-4.489-4.935-7.334-10.734-8.715l-.464 1.946c5.401 1.286 8.33 3.774 9.266 7.285l1.932-.516Zm-10.737-8.715c-2.236-.527-4.008-1.078-5.335-1.646-1.35-.579-2.135-1.132-2.513-1.606l-1.562 1.25c.688.86 1.837 1.573 3.287 2.194 1.473.632 3.368 1.214 5.665 1.754l.458-1.946Zm-7.771-3.142c-.321-.534-.334-.857-.288-1.042.046-.186.21-.465.745-.786l-1.029-1.714c-.799.479-1.436 1.133-1.656 2.014-.22.882.033 1.759.513 2.557l1.715-1.029Zm.457-1.828c1.049-.629 2.911-.923 5.794-.661l.182-1.992c-2.983-.271-5.388-.032-7.005.939l1.029 1.714Zm5.885-.657c3.027 0 6.075.756 9.153 2.294l.894-1.788c-3.322-1.662-6.674-2.506-10.047-2.506v2Zm92.572 93.4-.985-.174.985.174Zm-6.8 11.6.651.759-.651-.759Zm-23.2 0 .768-.64-.768.64Zm-2.8-11.6.985.174.005-.029.003-.028-.993-.117Zm6.4-11.6-.625-.781-.013.011-.013.011.651.759Zm23.6 0-.768.64.768-.64Zm1.815 11.426c-.757 4.289-2.895 7.954-6.466 11.015l1.302 1.518c3.896-3.339 6.291-7.408 7.134-12.185l-1.97-.348Zm-6.466 11.015c-3.569 3.059-7.475 4.559-11.749 4.559v2c4.793 0 9.153-1.7 13.051-5.041l-1.302-1.518Zm-11.749 4.559c-4.266 0-7.574-1.49-10.032-4.44l-1.536 1.28c2.875 3.45 6.768 5.16 11.568 5.16v-2Zm-10.032-4.44c-2.457-2.948-3.338-6.508-2.583-10.786l-1.97-.348c-.845 4.789.14 8.962 3.017 12.414l1.536-1.28Zm-2.575-10.843c.502-4.264 2.499-7.907 6.058-10.958l-1.302-1.518c-3.908 3.349-6.177 7.439-6.742 12.242l1.986.234Zm6.032-10.936c3.847-3.078 7.898-4.581 12.175-4.581v-2c-4.79 0-9.272 1.697-13.425 5.019l1.25 1.562Zm12.175-4.581c4.266 0 7.573 1.49 10.032 4.44l1.536-1.28c-2.875-3.45-6.768-5.16-11.568-5.16v2Zm10.032 4.44c2.457 2.948 3.338 6.508 2.583 10.786l1.97.348c.845-4.789-.14-8.962-3.017-12.414l-1.536 1.28Zm428.287-51.44-.883-.471-.009.017-.008.018.9.436Zm-12.8 24.4-.869-.496-.006.012-.007.012.882.472Zm-13.2 21.6.811.584.006-.007.005-.008-.822-.569Zm-16.4 19.2-.707-.707.707.707Zm-22 18 .564.825.002-.001-.566-.824Zm-33.6 18-.382-.924-.007.003.389.921Zm-38 10.8-.158-.987h-.004l.162.987Zm-41.2.8-.113.994h.002l.111-.994Zm-42.8-11.6-.394.919.002.001.392-.92Zm-40.4-28.4-.773.635.008.009.008.01.757-.654Zm-21.6-40-.957.29.001.005.956-.295Zm-6.4-47.2-1-.032v.016l1 .016Zm6.8-49.2-.968-.254-.002.008-.001.007.971.239Zm17.2-46.8-.901-.434.901.434Zm24.8-40 .782.623.311-.392-.126-.483-.967.252Zm-4-20.4-.991.137.001.004.99-.141Zm-2.4-23.6-1 .033.001.017.001.017.998-.067Zm.4-24-.996-.096-.001.015-.001.015.998.066Zm4.4-23.6.961.275.016-.055.009-.056-.986-.164Zm2-4-.625-.78-.043.034-.039.039.707.707Zm5.6.4-.929.371.049.123.08.106.8-.6Zm.4 5.6-.981-.196-.003.016-.003.016.987.164Zm-1.6 39.6-.997.078v.002l.997-.08Zm4.8 36.4-.982.192.423 2.169 1.35-1.75-.791-.611Zm166.4-73.2-.117.993.008.001.109-.994Zm48.8 14 .482-.876-.482.876Zm30 26-.826.565.007.01.819-.575Zm8.4 68.8-.949-.316-.004.013.953.303Zm-18.8 33.6-.772-.636-.005.005-.004.006.781.625Zm-32.4 27.2-.497-.868.497.868Zm-101.6 16.4.141-.99h-.002l-.139.99Zm-57.6-20-.515.857.006.004.509-.861Zm-41.6-48 .901-.434-.714-1.482-.987 1.316.8.6Zm-10.4 20.4.912.408.004-.008-.916-.4Zm-12.8 36 .96.277-.96-.277Zm-9.2 45.2.991.132v-.002l-.991-.13Zm.8 46 .984-.179-.984.179Zm16.8 39.6-.809.588.809-.588Zm38.8 25.6-.294.956.01.003.284-.959Zm68 5.2-.111-.994-.012.002.123.992Zm66-22-.499-.867-.008.005-.008.004.515.858Zm22.4-16.4-.676-.737-.008.007-.008.007.692.723Zm17.2-18.8-.797-.605.797.605Zm13.6-21.2.881.472.004-.006.003-.007-.888-.459Zm12.4-24.4.894.447.007-.014.007-.014-.908-.419Zm5.2-3.6-.497.868.497-.868Zm-60.4-214.4.149-.989-.008-.001-.141.99Zm-44.8 2-.226-.974h-.004l.23.974Zm-42.8 17.2-.5-.866.5.866Zm-39.6 30-.692-.722-.008.007.7.715Zm-33.2 40.8-.839-.544-.281.432.19.48.93-.368Zm38.8 51.2-.555.832.008.005.007.005.54-.842Zm58.4 20 .11-.994h-.001l-.109.994Zm62.8-5.2-.325-.946.325.946Zm43.6-25.6.698.716.009-.009-.707-.707Zm23.2-37.6.955.294-.955-.294Zm1.2-40-.97.243.002.009.002.01.966-.262Zm-21.6-33.6-.661.75.01.01.651-.76Zm13.1 202.364c-4.258 8.782-8.514 16.895-12.769 24.34l1.737.992c4.279-7.489 8.556-15.642 12.831-24.46l-1.799-.872Zm-12.782 24.364a221.39 221.39 0 0 1-13.141 21.503l1.645 1.138a223.591 223.591 0 0 0 13.259-21.697l-1.763-.944Zm-13.13 21.488c-4.767 6.62-10.198 12.98-16.295 19.077l1.414 1.414c6.169-6.169 11.671-12.61 16.504-19.323l-1.623-1.168Zm-16.295 19.077c-6.083 6.083-13.368 12.044-21.86 17.883l1.133 1.648c8.574-5.895 15.957-11.933 22.141-18.117l-1.414-1.414Zm-21.858 17.882c-10.072 6.891-21.21 12.858-33.417 17.901l.763 1.848c12.326-5.091 23.588-11.123 33.783-18.099l-1.129-1.65Zm-33.424 17.904c-11.924 5.034-24.512 8.612-37.769 10.734l.316 1.974c13.409-2.145 26.154-5.767 38.231-10.866l-.778-1.842Zm-37.773 10.734c-12.968 2.117-26.61 2.384-40.928.793l-.221 1.988c14.482 1.609 28.307 1.342 41.472-.807l-.323-1.974Zm-40.926.793c-14.028-1.588-28.201-5.427-42.521-11.526l-.783 1.84c14.48 6.168 28.84 10.062 43.079 11.674l.225-1.988Zm-42.518-11.525c-16.686-7.151-30.02-16.535-40.038-28.135l-1.513 1.308c10.249 11.867 23.848 21.416 40.763 28.665l.788-1.838Zm-40.022-28.116c-9.785-11.901-16.922-25.119-21.417-39.66l-1.911.59c4.572 14.793 11.835 28.241 21.783 40.34l1.545-1.27Zm-21.415-39.655c-4.502-14.829-6.623-30.458-6.358-46.894l-1.999-.032c-.268 16.631 1.878 32.468 6.443 47.506l1.914-.58Zm-6.358-46.878c.531-16.463 2.788-32.793 6.772-48.993l-1.942-.478c-4.017 16.334-6.293 32.803-6.829 49.407l1.999.064Zm6.768-48.978c4.25-16.206 9.962-31.745 17.133-46.62l-1.801-.868c-7.228 14.992-12.984 30.652-17.267 46.98l1.935.508Zm17.133-46.62c7.171-14.873 15.4-28.142 24.682-39.811l-1.565-1.245c-9.384 11.797-17.689 25.194-24.918 40.188l1.801.868Zm24.867-40.686c-1.589-6.091-2.915-12.853-3.977-20.29l-1.98.283c1.071 7.498 2.411 14.335 4.022 20.511l1.935-.504Zm-3.977-20.285a335.842 335.842 0 0 1-2.393-23.53l-1.995.134a337.562 337.562 0 0 0 2.407 23.67l1.981-.274Zm-2.391-23.496a239.453 239.453 0 0 1 .398-23.9l-1.995-.133a241.046 241.046 0 0 0-.402 24.1l1.999-.067Zm.396-23.87c.795-8.211 2.251-16.018 4.366-23.422l-1.923-.55c-2.151 7.53-3.628 15.456-4.434 23.779l1.991.192Zm4.391-23.533c.235-1.41.813-2.549 1.721-3.457l-1.414-1.414c-1.226 1.225-1.982 2.753-2.28 4.543l1.973.328Zm1.638-3.383c.633-.507 1.173-.862 1.623-1.087.457-.228.765-.294.953-.294v-2c-.613 0-1.238.2-1.848.506-.616.308-1.277.753-1.977 1.313l1.249 1.562Zm2.576-1.381c.305 0 .544.089.759.268.234.195.485.535.712 1.103l1.857-.742c-.306-.766-.722-1.425-1.288-1.897a3.12 3.12 0 0 0-2.04-.732v2Zm1.6 1.6c.247.33.444.855.502 1.671.058.814-.027 1.852-.283 3.133l1.961.392c.277-1.385.392-2.614.317-3.667-.075-1.051-.344-1.992-.897-2.729l-1.6 1.2Zm.213 4.836c-2.147 12.884-2.683 26.165-1.61 39.842l1.994-.156c-1.061-13.523-.53-26.642 1.589-39.358l-1.973-.328Zm-1.61 39.844c1.069 13.363 2.673 25.535 4.815 36.512l1.963-.383c-2.125-10.89-3.72-22.986-4.785-36.289l-1.993.16Zm6.588 36.93c21.51-27.881 46.578-47.899 75.201-60.09l-.784-1.84c-28.977 12.342-54.309 32.591-76 60.71l1.583 1.22Zm75.201-60.09c28.636-12.197 58.727-16.44 90.291-12.727l.233-1.986c-31.902-3.753-62.345.537-91.308 12.873l.784 1.84Zm90.299-12.726c19.374 2.123 35.505 6.762 48.426 13.882l.965-1.752c-13.212-7.28-29.615-11.975-49.173-14.118l-.218 1.988Zm48.426 13.882c12.959 7.14 22.829 15.71 29.657 25.689l1.651-1.13c-7.039-10.287-17.168-19.051-30.343-26.31l-.965 1.75Zm29.664 25.699c6.837 9.729 10.91 20.502 12.225 32.335l1.987-.22c-1.351-12.167-5.545-23.26-12.575-33.265l-1.637 1.15Zm12.225 32.335c1.316 11.85.001 23.704-3.955 35.574l1.897.632c4.044-12.13 5.396-24.276 4.045-36.426l-1.987.22Zm-3.959 35.587c-3.69 11.597-9.89 22.686-18.619 33.267l1.543 1.272c8.871-10.753 15.205-22.064 18.982-33.933l-1.906-.606Zm-18.628 33.278c-8.447 10.559-19.147 19.546-32.116 26.957l.993 1.736c13.165-7.523 24.065-16.669 32.684-27.443l-1.561-1.25Zm-32.116 26.957c-12.956 7.403-27.914 12.703-44.888 15.885l.369 1.966c17.16-3.218 32.335-8.585 45.512-16.115l-.993-1.736Zm-44.888 15.885c-16.94 3.176-35.628 3.314-56.074.393l-.283 1.98c20.621 2.946 39.533 2.816 56.726-.407l-.369-1.966Zm-56.076.393c-20.673-2.916-39.747-9.54-57.231-19.871l-1.017 1.722c17.716 10.469 37.042 17.178 57.969 20.129l.279-1.98Zm-57.225-19.868c-17.137-10.282-30.882-26.118-41.213-47.576l-1.802.868c10.468 21.742 24.456 37.906 41.986 48.423l1.029-1.715ZM587.691 130c-2.481 3.308-5.99 10.214-10.517 20.6l1.833.8c4.54-10.414 7.964-17.108 10.284-20.2l-1.6-1.2Zm-10.513 20.592c-4.557 10.186-8.839 22.232-12.848 36.131l1.921.554c3.991-13.834 8.243-25.788 12.752-35.869l-1.825-.816Zm-12.848 36.131c-4.016 13.921-7.092 29.037-9.231 45.347l1.983.26c2.128-16.223 5.185-31.24 9.169-45.053l-1.921-.554Zm-9.231 45.345c-2.146 16.095-1.879 31.533.808 46.311l1.968-.358c-2.647-14.556-2.914-29.784-.793-45.689l-1.983-.264Zm.808 46.311c2.693 14.81 8.351 28.151 16.975 40.009l1.617-1.176c-8.442-11.609-13.984-24.668-16.624-39.191l-1.968.358Zm16.975 40.009c8.689 11.948 21.827 20.587 39.315 25.968l.588-1.912c-17.179-5.286-29.908-13.714-38.286-25.232l-1.617 1.176Zm39.325 25.971c21.739 6.441 44.545 8.183 68.406 5.233l-.245-1.984c-23.605 2.917-46.133 1.192-67.593-5.167l-.568 1.918Zm68.394 5.235c24.138-2.682 46.276-10.06 66.404-22.137l-1.029-1.715c-19.872 11.924-41.734 19.213-65.596 21.864l.221 1.988Zm66.389-22.127c8.856-5.1 16.39-10.613 22.592-16.544l-1.383-1.446c-6.065 5.802-13.464 11.222-22.207 16.256l.998 1.734Zm22.576-16.53c6.443-5.905 12.217-12.216 17.321-18.932l-1.593-1.21c-5.029 6.617-10.721 12.84-17.079 18.668l1.351 1.474Zm17.321-18.932a160.17 160.17 0 0 0 13.685-21.333l-1.763-.944a158.143 158.143 0 0 1-13.515 21.067l1.593 1.21Zm13.692-21.346a1993.774 1993.774 0 0 0 12.406-24.412l-1.789-.894a2004.038 2004.038 0 0 1-12.394 24.388l1.777.918Zm12.42-24.44c.777-1.684 1.517-2.651 2.161-3.097.304-.21.564-.289.793-.298.23-.008.505.052.841.244l.993-1.736c-.597-.341-1.239-.531-1.908-.506-.672.025-1.295.262-1.858.652-1.089.754-2.015 2.12-2.838 3.903l1.816.838Zm3.795-3.151c.305.174.499.387.621.641.126.263.204.629.177 1.138-.055 1.048-.54 2.525-1.584 4.482l1.765.942c1.09-2.043 1.738-3.832 1.816-5.318.04-.757-.066-1.475-.372-2.112a3.456 3.456 0 0 0-1.43-1.509l-.993 1.736ZM757.032 26.81c-15.058-2.151-30.116-1.478-45.167 2.016l.452 1.948c14.815-3.44 29.623-4.1 44.432-1.984l.283-1.98Zm-45.171 2.017c-14.767 3.49-29.124 9.261-43.07 17.307l.999 1.732c13.788-7.954 27.964-13.65 42.531-17.093l-.46-1.946Zm-43.07 17.307c-13.942 8.043-27.205 18.093-39.792 30.144l1.383 1.444c12.48-11.949 25.617-21.9 39.408-29.856l-.999-1.732Zm-39.8 30.151c-12.322 12.054-23.435 25.712-33.339 40.971l1.677 1.088c9.829-15.141 20.85-28.683 33.061-40.63l-1.399-1.429Zm-33.43 41.883c9.124 23.08 22.171 40.328 39.175 51.664l1.109-1.664c-16.596-11.064-29.416-27.949-38.424-50.736l-1.86.736Zm39.19 51.674c17.207 11.023 36.824 17.737 58.831 20.152l.218-1.988c-21.727-2.385-41.044-9.005-57.97-19.848l-1.079 1.684Zm58.829 20.152c24.108 2.678 45.196.945 63.235-5.248l-.649-1.892c-17.694 6.074-38.472 7.807-62.365 5.152l-.221 1.988Zm63.235-5.248c17.979-6.172 32.649-14.774 43.974-25.83l-1.397-1.432c-11.074 10.811-25.471 19.275-43.226 25.37l.649 1.892Zm43.983-25.839c11.304-11.304 19.129-23.976 23.448-38.013l-1.911-.588c-4.215 13.697-11.856 26.091-22.951 37.187l1.414 1.414Zm23.448-38.013c4.317-14.03 4.731-27.556 1.21-40.555l-1.931.522c3.413 12.601 3.026 25.741-1.19 39.445l1.911.588Zm1.215-40.537c-3.256-13.024-10.581-24.398-21.92-34.116l-1.301 1.518c11.062 9.482 18.137 20.508 21.281 33.084l1.94-.486ZM803.552 46.25C792.168 36.22 776.637 29.764 757.04 26.81l-.298 1.978c19.336 2.913 34.471 9.256 45.488 18.961l1.322-1.5ZM1008.48 252.2l-.92-.414v.02l.92.394ZM987.675 293l-.832-.555-.004.007.836.548Zm-18 20.8.646.763.008-.007.009-.007-.663-.749Zm-38 6-.423.906.011.005.011.005.401-.916Zm-9.6-7.2.774-.633-.593-.725-.762.544.581.814Zm-17.2 10 .394.919.01-.004.01-.005-.414-.91Zm-17.2 3.2.045-.999h-.009l-.036.999Zm-17.6-6.4-.707.707.011.011.012.012.684-.73Zm-8.8-16.4-.981.196.004.019.005.018.972-.233Zm-.4-22.4-.988-.154-.002.013-.002.013.992.128Zm7.6-26 .921.391.004-.01-.925-.381Zm14-25.6-.816-.579-.003.006.819.573Zm18.8-21.2.661.751.002-.002-.663-.749Zm20.8-14.4-.434-.901-.007.003-.006.004.447.894Zm20.8-4.8-.04.999.02.001h.02v-1Zm17.6 6.4-.707.707.011.011.011.01.685-.728Zm8.8 16.4-.981.196.004.019.005.018.972-.233Zm.4 22.8-.988-.154-.002.013-.002.013.992.128Zm-7.2 25.6-.921-.391v.001l.921.39Zm-13.2 23.2.824.567-.824-.567Zm-20 23.2-.68-.733-.559.519.352.675.887-.461Zm36.4 2 .69.724-.69-.724Zm15.2-18.8-.832-.555-.007.011-.007.011.846.533Zm12.4-22-.901-.435-.003.007-.003.007.907.421Zm9.205-18.8-.9-.447.9.447Zm4.8-2-.36.936.36-.936Zm-56.005-48 .294-.956-.025-.008-.026-.006-.243.97Zm-14 2 .406.914.011-.005.011-.005-.428-.904Zm-14.8 10.4.688.726-.688-.726Zm-14.8 17.6-.822-.569-.005.007.827.562Zm-12 21.6.906.423.003-.007.004-.007-.913-.409Zm-9.2 22.8-.949-.316-.005.016-.005.016.959.284Zm-4 19.6.996.095v-.004l-.996-.091Zm1.2 14.4-.949.316.004.01.003.01.942-.336Zm7.2 7.2-.294.956.01.003.009.003.275-.962Zm12.4-1.2-.362-.932-.01.004-.009.003.381.925Zm14.4-8.8.64.768.704-.587-.523-.752-.821.571Zm-6.4-19.2-.998-.059-.002.03V285h1Zm3.2-11.6-.852-.524-.006.01-.006.01.864.504Zm18.8-1.6-.747.664.019.022.021.021.707-.707Zm3.2 10.4-.949-.316-.051.154v.162h1Zm-.4 2-.949-.316 1.77.887-.821-.571Zm12-21.2.906.423-.906-.423Zm8.8-22.8.959.284.003-.009-.962-.275Zm3.6-19.6-.996-.091-.002.022-.001.021.999.048Zm-1.6-14.4-.928.371.004.012.005.011.919-.394Zm-132.8 59.2-.901-.434-.004.008-.003.007.908.419Zm-4 8.4.894.447-.894-.447Zm-3.6 8-.923-.385.923.385Zm-5.6 12.8-.912-.41.912.41Zm-10 22.8.878.479.022-.04.018-.042-.918-.397Zm-5.6 5.2.243.97-.243-.97Zm-9.6.8v-1h-.045l-.046.004.091.996Zm-13.6 2.4-.894-.447-1.59 3.179 3.014-1.884-.53-.848Zm27.2-56.8-.905-.426-.004.01.909.416Zm28-55.2.878.478.006-.011-.884-.467Zm13.2-20-.707-.707.707.707Zm15.2-5.2.1-.995-.029-.003-.029-.001-.042.999Zm8 1.6-.287.958.053.016.055.01.179-.984Zm8.8 0 .479.878-.658-1.862.179.984Zm-10.8 10.4-.781-.625-.01.012-.009.013.8.6Zm-12.8 18.8-.846-.533-.007.012-.007.011.86.51Zm-13.2 23.2-.877-.481-.005.01.882.471Zm61.6-1.2-.707-.707-.139.138-.076.181.922.388Zm-10 14.8.727.687-.727-.687Zm-16 6.4-.1.995.013.001.087-.996Zm-16-4.8-.482.876.017.01.018.008.447-.894Zm-16-5.2.1-.995-.009-.001-.091.996Zm-8 2.4.555.832.03-.02.029-.023-.614-.789Zm-5.6 6-.874-.486-.126.227V261h1Zm-1.2 1.2v1h.162l.154-.051-.316-.949Zm-2.4 0-.316.949.154.051h.162v-1Zm-2-.4-.447.894.211.106h.236v-1Zm-.4-1.2.894.447.011-.02.009-.021-.914-.406Zm10.4-13.6.659.753.025-.022.023-.024-.707-.707Zm7.2-4.8.371.928-.371-.928Zm8.4-1.2-.091.996.046.004h.045v-1Zm8.4 1.6-.371.928.041.017.043.013.287-.958Zm7.6 2.8-.406.914.017.007.018.007.371-.928Zm7.6 3.2-.406.914.058.026.061.018.287-.958Zm8 1.6.141-.99-.02-.003-.021-.002-.1.995Zm8.8-1.6.6.8.007-.005.007-.006-.614-.789Zm5.6-7.2-.832-.555-.045.068-.033.073.91.414Zm3.6-.8-.141.99.07.01h.071v-1Zm110.285 11.206c-1.6 3.725-4.13 9.452-7.597 17.185l1.827.818c3.46-7.734 6-13.474 7.6-17.215l-1.83-.788Zm-7.597 17.185c-3.442 7.676-7.814 15.494-13.12 23.454l1.664 1.11c5.36-8.04 9.788-15.956 13.283-23.746l-1.827-.818Zm-13.124 23.461a102.033 102.033 0 0 1-17.827 20.599l1.326 1.498a104.047 104.047 0 0 0 18.173-21.001l-1.672-1.096Zm-17.81 20.585c-6.772 5.73-14.148 8.563-22.154 8.563v2c8.527 0 16.351-3.033 23.446-9.037l-1.292-1.526Zm-22.154 8.563c-5.763 0-10.687-.917-14.799-2.716l-.802 1.832c4.421 1.934 9.631 2.884 15.601 2.884v-2Zm-14.777-2.706c-3.886-1.814-6.959-4.128-9.249-6.927l-1.548 1.266c2.51 3.067 5.837 5.553 9.951 7.473l.846-1.812Zm-10.604-7.108c-5.551 3.965-11.229 7.265-17.033 9.904l.828 1.82c5.929-2.695 11.718-6.061 17.367-10.096l-1.162-1.628Zm-17.013 9.895c-5.467 2.343-11.05 3.38-16.761 3.12l-.09 1.998c6.023.274 11.906-.823 17.639-3.28l-.788-1.838Zm-16.77 3.12c-7.294-.261-12.906-2.338-16.952-6.131l-1.368 1.46c4.488 4.207 10.609 6.397 18.248 6.669l.072-1.998Zm-16.929-6.108c-4.119-4.119-6.972-9.414-8.535-15.926l-1.944.466c1.637 6.821 4.651 12.46 9.065 16.874l1.414-1.414Zm-8.526-15.889c-1.308-6.539-1.445-13.894-.389-22.076l-1.984-.256c-1.077 8.351-.947 15.93.411 22.724l1.962-.392Zm-.393-22.05c1.319-8.444 3.828-17.031 7.533-25.763l-1.842-.782c-3.762 8.868-6.32 17.614-7.667 26.237l1.976.308Zm7.537-25.773a131.452 131.452 0 0 1 13.894-25.408l-1.638-1.146a133.423 133.423 0 0 0-14.106 25.792l1.85.762Zm13.891-25.402c5.828-8.212 12.044-15.219 18.645-21.028l-1.322-1.502c-6.732 5.925-13.049 13.051-18.955 21.372l1.632 1.158Zm18.647-21.03c6.88-6.086 13.742-10.833 20.584-14.255l-.894-1.788c-7.025 3.512-14.029 8.365-21.016 14.545l1.326 1.498Zm20.571-14.248c7.081-3.41 13.852-4.961 20.326-4.702l.08-1.998c-6.86-.275-13.955 1.374-21.274 4.898l.868 1.802Zm20.366-4.701c7.268 0 12.856 2.07 16.893 6.107l1.414-1.414c-4.497-4.497-10.642-6.693-18.307-6.693v2Zm16.915 6.128c4.368 4.111 7.208 9.385 8.504 15.868l1.962-.392c-1.371-6.851-4.397-12.51-9.096-16.932l-1.37 1.456Zm8.513 15.905c1.562 6.512 1.702 13.976.384 22.413l1.976.308c1.348-8.63 1.222-16.365-.416-23.187l-1.944.466Zm.38 22.439c-1.053 8.164-3.426 16.609-7.129 25.337l1.842.782c3.763-8.872 6.191-17.494 7.271-25.863l-1.984-.256Zm-7.129 25.338c-2.899 6.853-7.261 14.527-13.103 23.023l1.648 1.134c5.892-8.57 10.33-16.364 13.297-23.377l-1.842-.78Zm-13.103 23.023c-5.826 8.474-12.444 16.152-19.856 23.034l1.36 1.466c7.522-6.984 14.236-14.774 20.144-23.366l-1.648-1.134Zm-20.063 24.228c1.818 3.496 4.354 6.148 7.609 7.918 3.247 1.764 7.154 2.621 11.678 2.621v-2c-4.276 0-7.836-.81-10.722-2.379-2.879-1.564-5.142-3.912-6.791-7.082l-1.774.922Zm19.287 10.539c6.708 0 12.945-2.805 18.69-8.276l-1.38-1.448c-5.455 5.195-11.218 7.724-17.31 7.724v2Zm18.69-8.276c5.665-5.396 10.783-11.728 15.356-18.991l-1.692-1.066c-4.494 7.137-9.509 13.338-15.044 18.609l1.38 1.448Zm15.342-18.969c4.827-7.241 8.986-14.619 12.475-22.134l-1.814-.842c-3.444 7.418-7.552 14.707-12.325 21.866l1.664 1.11Zm12.469-22.12c3.732-7.732 6.794-13.994 9.194-18.788l-1.79-.894c-2.402 4.806-5.471 11.077-9.206 18.812l1.802.87Zm9.194-18.788c.47-.932.98-1.413 1.49-1.624.5-.208 1.16-.226 2.06.113l.71-1.872c-1.23-.461-2.44-.546-3.54-.087-1.09.455-1.91 1.375-2.51 2.576l1.79.894Zm3.55-1.511c.82.308 1.16.742 1.28 1.274.13.622 0 1.583-.64 2.976l1.83.828c.7-1.541 1.03-2.98.76-4.224-.28-1.335-1.21-2.234-2.52-2.726l-.71 1.872Zm-55.402-49.906c-4.547-1.137-9.454-.405-14.671 2.066l.856 1.808c4.916-2.329 9.343-2.93 13.329-1.934l.486-1.94Zm-14.649 2.056c-4.932 2.192-9.958 5.734-15.082 10.588l1.376 1.452c5.009-4.746 9.85-8.137 14.518-10.212l-.812-1.828Zm-15.082 10.588c-5.126 4.856-10.103 10.778-14.934 17.757l1.644 1.138c4.769-6.888 9.658-12.699 14.666-17.443l-1.376-1.452Zm-14.939 17.764c-4.568 6.717-8.596 13.969-12.085 21.753l1.825.818c3.443-7.683 7.415-14.831 11.914-21.447l-1.654-1.124Zm-12.079 21.739c-3.747 8.029-6.829 15.665-9.243 22.907l1.898.632c2.386-7.158 5.438-14.722 9.157-22.693l-1.812-.846Zm-9.253 22.939c-2.147 7.247-3.496 13.846-4.037 19.793l1.992.182c.526-5.787 1.843-12.254 3.963-19.407l-1.918-.568Zm-4.037 19.789c-.542 5.695-.142 10.643 1.247 14.811l1.898-.632c-1.277-3.832-1.678-8.484-1.153-13.989l-1.992-.19Zm1.254 14.831c1.428 3.999 4.049 6.651 7.848 7.82l.588-1.912c-3.134-.964-5.314-3.112-6.552-6.58l-1.884.672Zm7.867 7.826c4.002 1.143 8.37.692 13.056-1.237l-.762-1.85c-4.381 1.804-8.279 2.154-11.744 1.163l-.55 1.924Zm13.037-1.23c4.92-1.913 9.812-4.909 14.678-8.964l-1.28-1.536c-4.734 3.945-9.442 6.816-14.122 8.636l.724 1.864Zm14.859-10.303c-4.165-5.987-6.221-12.191-6.221-18.629h-2c0 6.895 2.21 13.491 6.579 19.771l1.642-1.142Zm-6.223-18.57c.26-4.412 1.294-8.118 3.066-11.155l-1.728-1.008c-1.962 3.363-3.06 7.39-3.334 12.045l1.996.118Zm3.054-11.135c1.916-3.114 5.022-4.724 9.548-4.724v-2c-5.074 0-8.901 1.856-11.252 5.676l1.704 1.048Zm9.548-4.724c3.207 0 5.725 1.096 7.653 3.264l1.494-1.328c-2.339-2.632-5.42-3.936-9.147-3.936v2Zm7.693 3.307c2.244 2.244 3.307 4.667 3.307 7.293h2c0-3.24-1.337-6.151-3.893-8.707l-1.414 1.414Zm3.307 7.293a6.54 6.54 0 0 1-.349 2.084l1.898.632a8.57 8.57 0 0 0 .451-2.716h-2Zm-.4 2.4c0 .382-.099.934-.349 1.684l1.898.632c.283-.85.451-1.631.451-2.316h-2Zm1.421 2.571c4.304-6.188 8.332-13.305 12.085-21.348l-1.812-.846c-3.714 7.957-7.686 14.973-11.915 21.052l1.642 1.142Zm12.085-21.348c3.751-8.037 6.703-15.684 8.853-22.939l-1.918-.568c-2.117 7.145-5.031 14.698-8.747 22.661l1.812.846Zm8.856-22.948c2.147-7.515 3.365-14.127 3.637-19.827l-1.998-.096c-.262 5.5-1.443 11.955-3.562 19.373l1.923.55Zm3.634-19.784c.542-5.963.011-10.946-1.677-14.885l-1.838.788c1.512 3.527 2.048 8.145 1.523 13.915l1.992.182Zm-1.668-14.862c-1.688-4.222-4.423-7.012-8.234-8.185l-.588 1.912c3.122.96 5.454 3.237 6.966 7.015l1.856-.742Zm-134.636 59.152c-1.598 3.462-2.926 6.252-3.986 8.372l1.788.894c1.074-2.146 2.412-4.957 4.014-8.428l-1.816-.838Zm-3.986 8.372c-1.081 2.161-2.29 4.85-3.629 8.062l1.846.77c1.328-3.188 2.519-5.832 3.571-7.938l-1.788-.894Zm-3.629 8.062c-1.328 3.188-3.191 7.445-5.589 12.775l1.824.82c2.402-5.337 4.273-9.613 5.611-12.825l-1.846-.77Zm-5.589 12.775c-2.403 5.34-5.739 12.945-10.006 22.813l1.836.794c4.266-9.865 7.597-17.46 9.994-22.787l-1.824-.82Zm-9.966 22.731c-1.535 2.815-3.216 4.272-4.965 4.709l.486 1.94c2.518-.63 4.57-2.639 6.235-5.691l-1.756-.958Zm-4.965 4.709c-2.01.503-5.111.77-9.357.77v2c4.287 0 7.587-.266 9.843-.83l-.486-1.94Zm-9.448.774c-2.918.265-5.285.396-7.109.396v2c1.909 0 4.342-.136 7.291-.404l-.182-1.992Zm-7.109.396c-2.352 0-4.667.737-6.93 2.152l1.06 1.696c2.003-1.252 3.955-1.848 5.87-1.848v-2Zm-5.506 3.447a1807.587 1807.587 0 0 0 27.215-56.831l-1.818-.832a1806.918 1806.918 0 0 1-27.185 56.769l1.788.894Zm27.211-56.821a1069.692 1069.692 0 0 1 27.973-55.148l-1.756-.956a1072.133 1072.133 0 0 0-28.027 55.252l1.81.852Zm27.979-55.159c5.059-9.585 9.402-16.138 13.023-19.76l-1.414-1.414c-3.845 3.845-8.302 10.625-13.377 20.24l1.768.934Zm13.023-19.76c3.494-3.494 8.266-5.166 14.451-4.908l.084-1.998c-6.615-.276-11.977 1.519-15.949 5.492l1.414 1.414Zm14.394-4.912c2.6.26 5.204.78 7.812 1.563l.574-1.916a43.464 43.464 0 0 0-8.187-1.637l-.199 1.99Zm7.92 1.589c3.052.555 6.106.555 9.158 0l-.358-1.968a23.391 23.391 0 0 1-8.442 0l-.358 1.968Zm8.5-1.862c-3.118 1.701-6.821 5.302-11.102 10.653l1.562 1.25c4.252-5.316 7.749-8.648 10.498-10.147l-.958-1.756ZM862.875 200c-4.02 5.36-8.302 11.65-12.846 18.867l1.692 1.066c4.523-7.183 8.774-13.426 12.754-18.733l-1.6-1.2Zm-12.86 18.89a804.087 804.087 0 0 0-13.217 23.229l1.754.962a800.494 800.494 0 0 1 13.183-23.171l-1.72-1.02Zm-13.222 23.239c-4.273 8.011-8.146 15.623-11.619 22.837l1.802.868c3.46-7.186 7.32-14.774 11.581-22.763l-1.764-.942Zm61.56-1.117c-2.078 4.937-5.338 9.771-9.805 14.501l1.454 1.374c4.6-4.87 8.007-9.902 10.195-15.099l-1.844-.776Zm-9.805 14.501c-4.341 4.597-9.382 6.596-15.186 6.091l-.174 1.992c6.462.562 12.088-1.706 16.814-6.709l-1.454-1.374Zm-15.173 6.092c-5.2-.52-10.416-2.081-15.653-4.699l-.894 1.788c5.43 2.715 10.88 4.354 16.347 4.901l.2-1.99Zm-15.618-4.681c-5.436-2.99-10.898-4.771-16.382-5.319l-.2 1.99c5.183.518 10.387 2.204 15.618 5.081l.964-1.752Zm-16.391-5.32c-3.195-.29-6.112.59-8.705 2.607l1.228 1.578c2.207-1.716 4.624-2.436 7.295-2.193l.182-1.992Zm-8.646 2.564c-2.525 1.684-4.504 3.8-5.919 6.346l1.748.972c1.252-2.254 3.006-4.138 5.281-5.654l-1.11-1.664ZM826.675 261c0 .005 0-.005.006-.019.005-.013.007-.008-.013.012-.05.05-.19.152-.509.258l.632 1.898c.931-.311 1.884-.951 1.884-2.149h-2Zm-.2.2H824.075v2H826.475v-2Zm-2.084.051c-.85-.283-1.631-.451-2.316-.451v2c.382 0 .934.099 1.684.349l.632-1.898Zm-1.869-.345c-.061-.031-.075-.048-.065-.038a.316.316 0 0 1 .067.116.302.302 0 0 1 .016.132c-.002.014-.001-.007.029-.069l-1.788-.894c-.203.404-.335.923-.155 1.463.18.541.597.876 1.002 1.078l.894-1.788Zm.067.1c1.029-2.315 2.451-4.646 4.275-6.992l-1.578-1.228c-1.909 2.454-3.421 4.923-4.525 7.408l1.828.812Zm4.275-6.992c1.831-2.353 3.787-4.44 5.87-6.261l-1.317-1.506c-2.185 1.912-4.228 4.092-6.131 6.539l1.578 1.228Zm5.918-6.307c2.043-2.042 4.33-3.565 6.864-4.579l-.742-1.856c-2.799 1.119-5.312 2.797-7.536 5.021l1.414 1.414Zm6.864-4.579c2.517-1.006 5.158-1.385 7.938-1.132l.182-1.992c-3.087-.28-6.045.141-8.862 1.268l.742 1.856Zm8.029-1.128c2.809 0 5.483.51 8.029 1.528l.742-1.856a23.404 23.404 0 0 0-8.771-1.672v2Zm8.113 1.558a62.75 62.75 0 0 1 7.481 2.756l.812-1.828a64.977 64.977 0 0 0-7.719-2.844l-.574 1.916Zm7.516 2.77a219.722 219.722 0 0 1 7.565 3.186l.812-1.828a217.668 217.668 0 0 0-7.635-3.214l-.742 1.856Zm7.684 3.23a43.543 43.543 0 0 0 8.187 1.637l.2-1.99a41.546 41.546 0 0 1-7.813-1.563l-.574 1.916Zm8.146 1.632c3.886.555 7.121.025 9.541-1.79l-1.2-1.6c-1.846 1.385-4.478 1.922-8.059 1.41l-.282 1.98Zm9.555-1.801c2.535-1.972 4.5-4.504 5.896-7.575l-1.82-.828c-1.271 2.795-3.039 5.063-5.304 6.825l1.228 1.578Zm5.818-7.434c.087-.131.264-.285.685-.379.437-.097 1.071-.11 1.942.014l.282-1.98c-.995-.142-1.895-.156-2.658.014-.779.173-1.469.552-1.915 1.221l1.664 1.11Zm2.768-.355c.446 0 .8.016 1.07.045.284.029.419.068.459.083.092.037-.266-.068-.34-.514-.069-.411.195-.612.104-.521l1.414 1.414c.175-.175.556-.61.454-1.221-.107-.646-.649-.918-.89-1.014-.535-.215-1.352-.272-2.271-.272v2Zm70.95 169 .905.424.012-.024.01-.026-.927-.374Zm-11.2 17.2.618.786.014-.011.014-.012-.646-.763Zm-15.6 3.6-.099.995.009.001.01.001.08-.997Zm-8-1.6.287-.958-.012-.003-.012-.004-.263.965Zm-8.8-.4-.707-.707-2.264 2.264 3.15-.573-.179-.984Zm9.2-14-.855-.519-.004.007-.004.006.863.506Zm15.6-28-.881-.473-.005.009.886.464Zm18.8-36-.891-.454.891.454Zm18.4-38.4-.906-.424-.003.008-.004.008.913.408Zm14.795-34.4-.92-.371-.01.012.93.359Zm8.41-25.2.97.212-1.83-.736.86.524Zm-7.21 6.8.29.958.05-.013.04-.017-.38-.928Zm-2-3.2-.889-.447-.009.016-.007.017.905.414Zm8-18 .92.406v-.005l-.92-.401Zm4.8-14.8-.96-.275v.022l-.01.021.97.232Zm2.8-16-.99-.105v.052l.99.053Zm-.39-12.8-.98.21v.015l.98-.225Zm-4.8-6.4-.18-.984-.04 1.96.22-.976Zm8.4-1.6.19.981.02-.005.03-.006-.24-.97Zm6.39-.8v1h.06l.06-.006-.12-.994Zm4.8-.8-.09-.996-.11.011-.11.036.31.949Zm7.2-.4v1h.08l.07-.01-.15-.99Zm4.4.8-.6.8.6-.8Zm2 5.2-.99.099.01.06.01.058.97-.217Zm-1.19 25.2-.98-.232v.018l-.01.018.99.196Zm-9.21 34 .95.316-.95-.316Zm-5.2 14.8-.93-.351 1.72.971-.79-.62Zm15.2-17.6.74.677.01-.007v-.007l-.75-.663Zm18.4-18.4.66.755.01-.008-.67-.747Zm17.6-13.6.57.822.01-.004-.58-.818Zm21.61-13.2.46.888.01-.007.01-.007-.48-.874Zm20-9.2-.32-.949-.01.005.33.944Zm14.79-1.6.88.486.6-1.079-1.18-.363-.3.956Zm-22 41.2.89.464.01-.01-.9-.454Zm-8.79 17.2-.9-.447-.01.016-.01.017.92.414Zm-7.61 17.2.92.41v-.016l-.92-.394Zm-6.39 15.2-.94-.362-.01.022v.024l.95.316Zm-3.21 12.4.99.19v-.038l-.99-.152Zm0 16.4-.85.514.01.021.01.02.83-.555Zm22.4-4.8.71.707-.71-.707Zm16-19.6.83.561.01-.006v-.007l-.84-.548Zm13.6-23.2.89.459-.89-.459Zm9.21-18 .89.447.01-.014v-.014l-.9-.419Zm5.19-3.6-.49.868.07.04.07.028.35-.936Zm.41 7.2.9.431v-.008l-.9-.423Zm-11.21 22-.88-.469v.011l-.01.011.89.447Zm-14.79 24.8.8.587.01-.007v-.007l-.81-.573Zm-18.41 20 .65.766-.65-.766Zm-32.4 6.4-.33.942.33-.942Zm-9.6-7.2-.84.541.03.035.02.034.79-.61Zm-4.4-14.4-.99.087v.004l.99-.091Zm3.6-23.2.96.3v-.013l-.96-.287Zm8-18 .88.489v-.008l.01-.007-.89-.474Zm14-24 .86.526v-.012l-.86-.514Zm4-10.4 1 .091-1-.091Zm-3.2-5.2-.24.97.02.003.01.003.21-.976Zm-10.4 3.2-.48-.874.48.874Zm-18.79 14.8.67.735.01-.003-.68-.732Zm-12 11.2-.69-.728-.01.01-.01.011.71.707Zm-14 16-.79-.621v.005l.79.616Zm-14.81 22 .86.511-.86-.511Zm-14.79 30-.93-.386v.012l.93.374Zm-38.51 92.776c-3.991 8.513-7.65 14.076-10.941 16.861l1.292 1.526c3.642-3.081 7.45-8.985 11.459-17.539l-1.81-.848Zm-10.913 16.838c-3.467 2.724-8.384 3.911-14.902 3.389l-.16 1.994c6.815.545 12.298-.668 16.298-3.811l-1.236-1.572Zm-14.883 3.391c-2.6-.26-5.204-.78-7.812-1.563l-.574 1.916a43.458 43.458 0 0 0 8.188 1.637l.198-1.99Zm-7.836-1.57c-3.074-.838-6.159-.979-9.242-.419l.358 1.968c2.783-.506 5.566-.381 8.358.381l.526-1.93Zm-8.356 1.272c.881-.88 2.097-2.526 3.629-4.858 1.546-2.353 3.456-5.47 5.727-9.343l-1.726-1.012c-2.262 3.86-4.153 6.944-5.673 9.257-1.534 2.335-2.652 3.822-3.371 4.542l1.414 1.414Zm9.348-14.188c4.548-7.491 9.758-16.844 15.631-28.055l-1.772-.928c-5.861 11.189-11.05 20.502-15.569 27.945l1.71 1.038Zm15.626-28.046c5.871-10.941 12.14-22.947 18.81-36.019l-1.782-.908c-6.664 13.061-12.927 25.055-18.79 35.981l1.762.946Zm18.81-36.019c6.674-13.08 12.815-25.896 18.422-38.446l-1.826-.816c-5.593 12.517-11.718 25.301-18.378 38.354l1.782.908Zm18.415-38.43c5.874-12.55 10.817-24.039 14.829-34.465l-1.87-.718c-3.988 10.374-8.912 21.818-14.771 34.335l1.812.848Zm14.819-34.453c4.28-10.683 7.1-19.144 8.45-25.359l-1.95-.424c-1.32 6.051-4.09 14.391-8.35 25.041l1.85.742Zm6.62-26.095c-2.06 3.358-4.32 5.436-6.72 6.396l.75 1.856c2.93-1.173 5.48-3.628 7.68-7.204l-1.71-1.048Zm-6.63 6.366c-.62.185-1.02.23-1.26.211-.21-.017-.16-.068-.11.017.02.034-.05-.057.02-.456.06-.378.23-.906.55-1.6l-1.825-.828c-.351.772-.598 1.478-.701 2.1-.101.601-.092 1.276.263 1.844.387.619 1.023.867 1.643.917.6.047 1.28-.074 1.99-.289l-.57-1.916Zm-.82-1.795c1.08-2.159 2.42-5.112 4.02-8.853l-1.83-.788c-1.6 3.726-2.93 6.639-3.979 8.747l1.789.894Zm4.02-8.853c1.6-3.731 2.93-6.793 4-9.188l-1.83-.812c-1.07 2.405-2.4 5.477-4 9.212l1.83.788Zm4-9.193c1.9-4.332 3.51-9.324 4.86-14.969l-1.95-.464c-1.32 5.555-2.9 10.43-4.74 14.631l1.83.802Zm4.85-14.926c1.61-5.662 2.56-11.07 2.83-16.222l-1.99-.106c-.27 4.982-1.18 10.24-2.77 15.778l1.93.55Zm2.83-16.17c.54-5.134.41-9.52-.42-13.13l-1.95.45c.77 3.323.91 7.47.38 12.47l1.99.21Zm-.42-13.115c-.83-3.879-2.59-6.506-5.56-7.166l-.43 1.952c1.83.406 3.27 2.046 4.04 5.634l1.95-.42Zm-5.6-5.206c2.94-.534 5.75-1.069 8.42-1.603l-.39-1.962c-2.66.532-5.46 1.065-8.38 1.597l.35 1.968Zm8.47-1.614c2.05-.514 4.11-.77 6.15-.77v-2c-2.21 0-4.43.277-6.64.83l.49 1.94Zm6.27-.776c2.38-.265 4.09-.54 5-.845l-.63-1.898c-.69.228-2.18.487-4.6.755l.23 1.988Zm4.78-.798c2.91-.265 5.28-.396 7.1-.396v-2c-1.9 0-4.34.136-7.29.404l.19 1.992Zm7.25-.406c1.71-.245 2.88.025 3.65.61l1.2-1.6c-1.35-1.015-3.12-1.278-5.14-.99l.29 1.98Zm3.65.61c.71.526 1.35 1.865 1.61 4.499l1.99-.199c-.27-2.698-.96-4.826-2.4-5.9l-1.2 1.6Zm1.63 4.617c.51 2.29.78 5.801.78 10.583h2c0-4.818-.27-8.507-.83-11.017l-1.95.434Zm.78 10.583c0 3.896-.66 8.614-1.98 14.168l1.95.464c1.34-5.646 2.03-10.528 2.03-14.632h-2Zm-1.99 14.204c-1.06 5.308-2.39 10.886-3.98 16.733l1.93.526a254.795 254.795 0 0 0 4.02-16.867l-1.97-.392Zm-3.98 16.733a328.008 328.008 0 0 1-5.18 17.147l1.89.632a313.945 313.945 0 0 0 5.22-17.253l-1.93-.526Zm-5.18 17.147c-1.87 5.591-3.6 10.513-5.19 14.765l1.87.702c1.61-4.281 3.34-9.226 5.21-14.835l-1.89-.632Zm-3.47 15.736c3.98-5.041 9.03-10.888 15.15-17.543l-1.47-1.354c-6.15 6.678-11.23 12.565-15.25 17.657l1.57 1.24Zm15.16-17.557c6.11-6.905 12.21-13.007 18.31-18.308l-1.31-1.51c-6.17 5.366-12.34 11.531-18.49 18.492l1.49 1.326Zm18.32-18.316c4.76-4.233 10.59-8.741 17.5-13.525l-1.13-1.644c-6.96 4.816-12.86 9.374-17.7 13.675l1.33 1.494Zm17.51-13.529c7.17-5.043 14.33-9.419 21.49-13.13l-.93-1.776c-7.24 3.756-14.48 8.18-21.71 13.27l1.15 1.636Zm21.51-13.144c7.16-3.979 13.78-7.019 19.84-9.13l-.65-1.888c-6.2 2.156-12.92 5.249-20.16 9.27l.97 1.748Zm19.83-9.125c6.35-2.117 11.03-2.565 14.19-1.593l.59-1.912c-3.78-1.161-8.96-.543-15.41 1.607l.63 1.898Zm13.61-3.035c-8 14.409-15.34 28.153-22.02 41.232l1.79.908c6.66-13.055 13.98-26.777 21.98-41.168l-1.75-.972Zm-22.01 41.222a1028.9 1028.9 0 0 0-8.81 17.217l1.79.894c2.93-5.861 5.86-11.589 8.79-17.183l-1.77-.928Zm-8.83 17.25a905.075 905.075 0 0 0-7.6 17.22l1.83.788a846.77 846.77 0 0 1 7.6-17.18l-1.83-.828Zm-7.6 17.204a332.276 332.276 0 0 0-6.42 15.248l1.87.724c1.86-4.781 3.98-9.832 6.38-15.152l-1.83-.82Zm-6.43 15.294c-1.61 4.832-2.7 9.023-3.24 12.564l1.97.304c.53-3.392 1.57-7.468 3.16-12.236l-1.89-.632Zm-3.24 12.526c-.8 4.166-1.21 7.668-1.21 10.49 0 2.795.4 5.048 1.34 6.614l1.71-1.029c-.66-1.1-1.05-2.914-1.05-5.585 0-2.645.38-6.01 1.18-10.11l-1.97-.38Zm.15 17.145c1.77 2.651 4.2 4.045 7.23 4.045v-2c-2.3 0-4.13-1.006-5.56-3.155l-1.67 1.11Zm7.23 4.045c5.45 0 11.03-3.008 16.71-8.693l-1.41-1.414c-5.52 5.515-10.61 8.107-15.3 8.107v2Zm16.71-8.693c5.65-5.65 11.03-12.234 16.12-19.746l-1.65-1.123c-5.04 7.422-10.33 13.905-15.88 19.455l1.41 1.414Zm16.13-19.759c5.09-7.76 9.64-15.523 13.65-23.289l-1.77-.918c-3.99 7.701-8.5 15.405-13.55 23.111l1.67 1.096Zm13.65-23.289c4-7.734 7.07-13.739 9.21-18.012l-1.79-.894c-2.13 4.26-5.19 10.256-9.19 17.988l1.77.918Zm9.22-18.04c.78-1.684 1.52-2.651 2.16-3.097.31-.21.57-.289.8-.298.23-.008.5.052.84.244l.99-1.736c-.6-.341-1.24-.531-1.91-.506-.67.025-1.29.262-1.85.652-1.09.754-2.02 2.12-2.84 3.903l1.81.838Zm3.94-3.083c.38.142.61.33.76.542.16.215.27.523.3.977.05.949-.3 2.366-1.21 4.322l1.81.846c.96-2.044 1.47-3.827 1.39-5.278-.04-.746-.24-1.438-.65-2.023-.42-.588-1-1-1.69-1.258l-.71 1.872Zm-.15 5.833c-2.92 6.116-6.65 13.436-11.18 21.962l1.77.938c4.54-8.541 8.28-15.887 11.22-22.038l-1.81-.862Zm-11.19 21.984c-4.24 8.488-9.15 16.713-14.72 24.674l1.63 1.146a197.132 197.132 0 0 0 14.88-24.926l-1.79-.894Zm-14.71 24.66c-5.56 7.674-11.64 14.279-18.24 19.821l1.29 1.532c6.73-5.658 12.92-12.386 18.56-20.179l-1.61-1.174Zm-18.24 19.821c-6.51 5.469-13.49 8.166-20.95 8.166v2c7.99 0 15.42-2.903 22.24-8.634l-1.29-1.532Zm-20.95 8.166c-3.34 0-6.83-.642-10.47-1.942l-.67 1.884c3.82 1.366 7.54 2.058 11.14 2.058v-2Zm-10.47-1.942c-3.53-1.262-6.58-3.537-9.14-6.868l-1.59 1.22c2.77 3.602 6.13 6.127 10.06 7.532l.67-1.884Zm-9.09-6.799c-2.29-3.561-3.73-8.193-4.25-13.95l-1.99.182c.54 5.976 2.04 10.944 4.55 14.85l1.69-1.082Zm-4.25-13.946c-.52-5.949.64-13.54 3.56-22.813l-1.91-.6c-2.95 9.393-4.19 17.269-3.64 23.587l1.99-.174Zm3.56-22.826c1.58-5.243 4.21-11.174 7.92-17.798l-1.75-.978c-3.75 6.709-6.46 12.778-8.08 18.202l1.91.574Zm7.93-17.813c3.72-6.911 8.37-14.893 13.97-23.949l-1.71-1.05c-5.6 9.078-10.28 17.095-14.03 24.051l1.77.948Zm13.97-23.96c2.44-4.061 3.85-7.678 4.14-10.823l-1.99-.182c-.25 2.721-1.5 6.038-3.86 9.977l1.71 1.028Zm4.14-10.823c.15-1.59-.06-2.999-.74-4.115-.71-1.144-1.83-1.84-3.24-2.152l-.43 1.952c.99.221 1.6.659 1.96 1.248.38.617.58 1.541.46 2.885l1.99.182Zm-3.95-6.261c-1.33-.331-2.93-.142-4.74.414-1.82.562-3.96 1.53-6.39 2.882l.97 1.748c2.37-1.315 4.37-2.213 6.01-2.718 1.66-.511 2.85-.588 3.66-.386l.49-1.94Zm-11.13 3.296c-4.91 2.727-11.25 7.728-19 14.942l1.37 1.464c7.71-7.186 13.91-12.052 18.6-14.658l-.97-1.748Zm-18.99 14.939c-3.47 3.203-7.48 6.939-12.01 11.207l1.37 1.456c4.53-4.265 8.53-7.996 11.99-11.193l-1.35-1.47Zm-12.03 11.228c-4.3 4.301-9 9.666-14.08 16.086l1.57 1.242c5.05-6.38 9.69-11.682 13.92-15.914l-1.41-1.414Zm-14.08 16.091c-4.83 6.174-9.79 13.545-14.87 22.105l1.71 1.022c5.06-8.506 9.96-15.803 14.73-21.895l-1.57-1.232Zm-14.87 22.105c-5.1 8.582-10.05 18.626-14.87 30.125l1.85.772c4.78-11.434 9.7-21.391 14.73-29.875l-1.71-1.022Zm-14.87 30.137-37.602 93.2 1.854.748 37.598-93.2-1.85-.748Zm292.28-67.626-.9-.423v.004l.9.419Zm-11.2 23.2.89.459.01-.012-.9-.447Zm-14.4 23.6.82.581-.82-.581Zm-17.6 18.8.63.784-.63-.784Zm-32.4 4.4-.56.822.02.016.02.014.52-.852Zm-8-10-.94.333.01.034.02.034.91-.401Zm1.6-38 .95.316-1.82-.808.87.492Zm-11.6 18.4-.82-.571v.008l.82.563Zm-13.2 16.4-.72-.688v.001l.72.687Zm-14.4 12 .51.865.01-.009.02-.01-.54-.846Zm-22 4-.21.976.06.013.05.006.1-.995Zm-7.2-2.8-.48.874.48-.874Zm-6.8-5.6-.78.614.02.026.02.024.74-.664Zm-4-9.2-.98.184v.013l.01.013.97-.21Zm-.4-12.4-.99-.132.99.132Zm2.8-11.6-.92-.371-.01.017-.01.018.94.336Zm5.2-11.2-.86-.496-.01.011-.01.011.88.474Zm6-11.2.9.447.72-1.447h-1.62v1Zm-4-1.2-.6.8.05.031.04.026.51-.857Zm.4-5.2-.84-.53-.03.04-.02.043.89.447Zm3.6-6.8.92.406-.92-.406Zm3.6-7.2.88.486.01-.013v-.014l-.89-.459Zm12-23.2-.88-.459.88.459Zm10.4-20.8-.89-.447v.008l-.01.008.9.431Zm6-6.4.41.914.02-.009.02-.011-.45-.894Zm34-2 .56.832 2.75-1.832h-3.31v1Zm-6.4 5.2.66.759.02-.025.03-.027-.71-.707Zm-6 6-.74-.664-.02.024-.02.026.78.614Zm-6 8.8.86.524-.86-.524Zm-7.2 13.6.88.474.02-.022.01-.022-.91-.43Zm-10 20 .89.464.01-.023.01-.024-.91-.417Zm-8.4 17.2.91.414-.91-.414Zm-6.8 14.4-.89-.447-.01.014v.014l.9.419Zm-8 26 1 .077-1-.077Zm2.8 14.8-.77.633.03.039.04.035.7-.707Zm11.6 1.2.35.938.02-.008.02-.008-.39-.922Zm17.2-14.4-.75-.659v.008l.75.651Zm16.4-22.8-.84-.537-.01.009v.01l.85.518Zm16-27.2.88.477.01-.01-.89-.467Zm14.4-28.4-.88-.457-.01.01-.01.01.9.437Zm12.8-26-.89-.447-.01.012v.012l.9.423Zm6-6.4.41.914.02-.009.02-.011-.45-.894Zm31.2-2 .64.774 2.17-1.774h-2.81v1Zm-7.6 6.8.66.753.03-.022.02-.024-.71-.707Zm-6.4 7.2-.8-.588-.01.007v.008l.81.573Zm-6 10.4.89.471v-.012l.01-.012-.9-.447Zm-7.6 15.2.89.464.01-.016.01-.017-.91-.431Zm-8.8 17.6-.9-.431v.008l-.01.009.91.414Zm-8 17.6-.91-.414v.02l.91.394Zm-6.4 16 .94.362v-.016l-.94-.346Zm-3.6 12.4.98.214.01-.031v-.031l-.99-.152Zm0 18.4-.89.447.02.04.02.037.85-.524Zm7.6 5.6-.09.996.05.004h.04v-1Zm14.4-6.4-.64-.765-.01.009-.01.009.66.747Zm14.4-16 .82.578.01-.008v-.008l-.83-.562Zm12.8-21.6-.88-.471v.012l.88.459Zm11.6-22.8.91.434v-.015l-.91-.419Zm5.2-3.6-.49.868.07.04.07.028.35-.936Zm-.5 6.781c-3.2 6.922-6.93 14.646-11.19 23.172l1.79.894c4.27-8.54 8.01-16.283 11.21-23.228l-1.81-.838Zm-11.18 23.16a191.221 191.221 0 0 1-14.33 23.478l1.63 1.162a193.598 193.598 0 0 0 14.47-23.722l-1.77-.918Zm-14.33 23.478c-5.28 7.399-11.09 13.595-17.41 18.597l1.25 1.568c6.48-5.132 12.41-11.469 17.79-19.003l-1.63-1.162Zm-17.41 18.597c-6.24 4.946-12.83 7.384-19.78 7.384v2c7.46 0 14.47-2.629 21.03-7.816l-1.25-1.568Zm-19.78 7.384c-4.37 0-8.18-1.026-11.47-3.052l-1.05 1.704c3.64 2.241 7.83 3.348 12.52 3.348v-2Zm-11.43-3.022c-3.29-2.284-5.85-5.464-7.65-9.579l-1.83.802c1.93 4.418 4.71 7.905 8.35 10.421l1.13-1.644Zm-7.62-9.511c-1.55-4.397-2.35-9.745-2.35-16.067h-2c0 6.478.81 12.064 2.46 16.733l1.89-.666ZM1212.18 293c0-6.265 1.31-13.355 3.95-21.284l-1.89-.632c-2.69 8.071-4.06 15.381-4.06 21.916h2Zm2.13-22.092c-3.45 6.105-7.3 12.212-11.55 18.321l1.65 1.142c4.28-6.157 8.16-12.317 11.64-18.479l-1.74-.984Zm-11.55 18.329a130.751 130.751 0 0 1-13.1 16.275l1.45 1.376a132.346 132.346 0 0 0 13.3-16.525l-1.65-1.126Zm-13.1 16.276c-4.48 4.746-9.22 8.69-14.21 11.842l1.07 1.691c5.14-3.249 10.01-7.305 14.59-12.159l-1.45-1.374Zm-14.18 11.822c-4.94 2.864-9.71 4.265-14.3 4.265v2c5.02 0 10.12-1.532 15.31-4.535l-1.01-1.73Zm-14.3 4.265c-2.09 0-4.45-.131-7.1-.395l-.2 1.99c2.7.269 5.13.405 7.3.405v-2Zm-6.98-.376c-2.29-.51-4.6-1.406-6.93-2.698l-.97 1.748c2.47 1.375 4.96 2.346 7.47 2.902l.43-1.952Zm-6.93-2.698c-2.29-1.27-4.47-3.061-6.54-5.39l-1.49 1.328c2.19 2.471 4.55 4.414 7.06 5.81l.97-1.748Zm-6.5-5.34c-1.75-2.255-3.03-5.173-3.81-8.796l-1.95.42c.82 3.843 2.21 7.059 4.19 9.604l1.57-1.228Zm-3.8-8.77c-.78-4.17-.91-8.197-.39-12.084l-1.99-.264c-.55 4.113-.41 8.353.41 12.716l1.97-.368Zm-.39-12.084a55.34 55.34 0 0 1 2.75-11.396l-1.89-.672c-1.35 3.8-2.3 7.735-2.85 11.804l1.99.264Zm2.73-11.361c1.59-3.968 3.31-7.666 5.15-11.097l-1.76-.948c-1.88 3.503-3.63 7.271-5.24 11.303l1.85.742Zm5.14-11.075c2.14-3.749 4.15-7.498 6.03-11.249l-1.79-.894a233.648 233.648 0 0 1-5.97 11.151l1.73.992Zm5.13-12.696c-1.12 0-2.28-.335-3.48-1.057l-1.03 1.714c1.46.878 2.97 1.343 4.51 1.343v-2Zm-3.4-1c-.17-.133-.35-.381-.3-1.023.05-.677.35-1.641 1-2.93l-1.79-.894c-.69 1.378-1.12 2.614-1.2 3.67-.09 1.091.21 2.11 1.09 2.777l1.2-1.6Zm.65-3.87a56.433 56.433 0 0 0 3.67-6.924l-1.83-.812a55.03 55.03 0 0 1-3.53 6.676l1.69 1.06Zm3.67-6.924a87.988 87.988 0 0 1 3.56-7.12l-1.75-.972a90.971 90.971 0 0 0-3.64 7.28l1.83.812Zm3.57-7.147 12-23.2-1.77-.918-12 23.2 1.77.918Zm12-23.2c4.01-7.74 7.48-14.683 10.42-20.828l-1.81-.862c-2.93 6.121-6.39 13.045-10.38 20.772l1.77.918Zm10.41-20.812c1.53-3.067 3.39-4.99 5.51-5.933l-.81-1.828c-2.68 1.19-4.82 3.534-6.49 6.867l1.79.894Zm5.55-5.953c2.5-1.248 5.54-1.894 9.15-1.894v-2c-3.85 0-7.21.688-10.04 2.106l.89 1.788Zm9.15-1.894h24.4v-2h-24.4v2Zm23.85-1.832c-2.45 1.633-4.64 3.408-6.55 5.325l1.41 1.414c1.82-1.816 3.9-3.508 6.25-5.075l-1.11-1.664Zm-6.5 5.273c-1.91 1.636-3.94 3.67-6.09 6.095l1.49 1.328c2.11-2.375 4.08-4.341 5.91-5.905l-1.31-1.518Zm-6.13 6.145c-1.9 2.437-3.92 5.402-6.07 8.89l1.71 1.048c2.12-3.445 4.1-6.347 5.93-8.71l-1.57-1.228Zm-6.07 8.89c-2.16 3.508-4.57 8.077-7.25 13.694l1.81.86c2.66-5.583 5.04-10.081 7.15-13.506l-1.71-1.048Zm-7.23 13.65c-3.74 6.95-7.08 13.636-10.02 20.057l1.81.834c2.93-6.379 6.25-13.026 9.97-19.943l-1.76-.948Zm-10 20.01a350.74 350.74 0 0 0-8.43 17.25l1.82.828a346.24 346.24 0 0 1 8.38-17.15l-1.77-.928Zm-8.43 17.25c-2.66 5.861-4.92 10.649-6.78 14.367l1.79.894c1.87-3.748 4.15-8.561 6.81-14.433l-1.82-.828Zm-6.79 14.395c-4.83 10.447-7.55 19.238-8.09 26.342l1.99.154c.52-6.763 3.13-15.305 7.91-25.658l-1.81-.838Zm-8.09 26.342c-.54 6.998.37 12.267 3.02 15.51l1.55-1.266c-2.15-2.623-3.11-7.221-2.58-14.09l-1.99-.154Zm3.09 15.584c3.05 3.058 7.4 3.366 12.65 1.431l-.69-1.876c-4.88 1.799-8.27 1.307-10.55-.969l-1.41 1.414Zm12.69 1.415c5.28-2.224 11.14-7.166 17.57-14.671l-1.51-1.302c-6.37 7.428-11.98 12.087-16.83 14.129l.77 1.844Zm17.57-14.663c5.64-6.452 11.14-14.101 16.5-22.941l-1.71-1.036c-5.31 8.76-10.74 16.311-16.3 22.659l1.51 1.318Zm16.49-22.922a453.268 453.268 0 0 0 16.03-27.26l-1.75-.954a454.731 454.731 0 0 1-15.97 27.14l1.69 1.074Zm16.04-27.27c5.07-9.61 9.88-19.086 14.41-28.43l-1.8-.874a934.198 934.198 0 0 1-14.38 28.37l1.77.934Zm14.4-28.41c4.81-9.342 9.08-18.021 12.82-26.034l-1.81-.846c-3.73 7.987-7.99 16.642-12.78 25.966l1.77.914Zm12.81-26.01c1.53-3.067 3.39-4.99 5.51-5.933l-.81-1.828c-2.68 1.19-4.82 3.534-6.49 6.867l1.79.894Zm5.55-5.953c2.5-1.248 5.54-1.894 9.15-1.894v-2c-3.85 0-7.21.688-10.04 2.106l.89 1.788Zm9.15-1.894h21.6v-2h-21.6v2Zm20.97-1.774c-2.95 2.416-5.51 4.705-7.67 6.867l1.41 1.414c2.11-2.105 4.61-4.349 7.53-6.733l-1.27-1.548Zm-7.62 6.821c-2.21 1.928-4.39 4.387-6.55 7.365l1.61 1.176c2.1-2.889 4.19-5.229 6.25-7.035l-1.31-1.506Zm-6.56 7.38c-1.91 2.72-3.93 6.233-6.08 10.526l1.79.894c2.12-4.241 4.09-7.661 5.92-10.274l-1.63-1.146Zm-6.07 10.502c-2.14 4.018-4.68 9.099-7.62 15.24l1.81.862c2.93-6.125 5.45-11.178 7.58-15.16l-1.77-.942Zm-7.6 15.207a544.3 544.3 0 0 0-8.82 17.633l1.81.862a518.007 518.007 0 0 1 8.78-17.567l-1.77-.928Zm-8.83 17.65c-2.66 5.867-5.33 11.734-8 17.6l1.82.828c2.67-5.867 5.34-11.734 8-17.6l-1.82-.828Zm-8 17.62c-2.41 5.614-4.55 10.963-6.42 16.048l1.87.692c1.86-5.049 3.99-10.366 6.38-15.952l-1.83-.788Zm-6.42 16.032c-1.88 4.839-3.11 9.046-3.65 12.61l1.97.304c.52-3.37 1.7-7.429 3.55-12.19l-1.87-.724Zm-3.64 12.548c-1.87 8.556-1.95 14.994.08 19.061l1.79-.894c-1.7-3.4-1.78-9.228.08-17.739l-1.95-.428Zm.12 19.138c2.23 3.625 5.01 5.767 8.36 6.072l.18-1.992c-2.51-.228-4.8-1.82-6.83-5.128l-1.71 1.048Zm8.45 6.076c5.12 0 10.15-2.279 15.07-6.653l-1.33-1.494c-4.68 4.159-9.25 6.147-13.74 6.147v2Zm15.05-6.635c5.14-4.33 10-9.73 14.57-16.187l-1.63-1.156c-4.49 6.343-9.24 11.61-14.23 15.813l1.29 1.53Zm14.58-16.203c4.56-6.702 8.85-13.937 12.86-21.703l-1.77-.918c-3.99 7.7-8.23 14.866-12.74 21.497l1.65 1.124Zm12.86-21.691c4.27-8.011 8.14-15.623 11.62-22.837l-1.81-.868c-3.46 7.186-7.32 14.774-11.58 22.763l1.77.942Zm11.62-22.852c.78-1.684 1.52-2.651 2.16-3.097.31-.21.57-.289.8-.298.23-.008.5.052.84.244l.99-1.736c-.6-.341-1.24-.531-1.91-.506-.67.025-1.29.262-1.85.652-1.09.754-2.02 2.12-2.84 3.903l1.81.838Zm3.94-3.083c.38.142.61.33.76.542.16.215.27.523.3.977.05.949-.3 2.366-1.21 4.322l1.81.846c.95-2.044 1.47-3.827 1.39-5.278-.04-.746-.24-1.438-.65-2.023-.42-.588-1.01-1-1.69-1.258l-.71 1.872Zm8.92 22.264-.9-.434v.015l.9.419Zm-4 8.4-.89-.447.89.447Zm-3.6 8-.92-.385.92.385Zm-5.6 12.8.92.41-.92-.41Zm-10 22.8.88.479.02-.04.02-.042-.92-.397Zm-5.6 5.2.25.97-.25-.97Zm-9.6.8v-1h-.04l-.05.004.09.996Zm-13.6 2.4-.89-.447-1.59 3.179 3.01-1.884-.53-.848Zm27.2-56.8-.9-.426-.01.01.91.416Zm28-55.2.88.478.01-.011-.89-.467Zm13.2-20-.7-.707.7.707Zm15.2-5.2.1-.995-.03-.003-.03-.001-.04.999Zm8 1.6-.28.958.05.016.05.01.18-.984Zm8.8 0 .48.878-.66-1.862.18.984Zm-10.8 10.4-.78-.625-.01.012-.01.013.8.6Zm-12.8 18.8-.84-.533-.01.012-.01.011.86.51Zm-13.2 23.2-.87-.481-.01.01.88.471Zm59.2 22.8.9.447V265.834l-.9-.434Zm-6 14-.93-.356-.01.013v.013l.94.33Zm-4 16 .99.156v-.008l-.99-.148Zm.4 13.2-.96.275.01.031.01.03.94-.336Zm24.8-2.8-.7-.707-.01.009-.01.008.72.69Zm15.6-19.6.84.541-.84-.541Zm12.8-22.4-.89-.459v.012l.89.447Zm9.2-18 .9.447v-.014l.01-.014-.91-.419Zm5.2-3.6-.49.868.07.04.07.028.35-.936Zm.4 7.2.91.431v-.008l-.91-.423Zm-11.2 22-.88-.469-.01.011v.011l.89.447Zm-14.8 24.8.81.587.01-.007v-.007l-.82-.573Zm-18.4 20-.64-.766.64.766Zm-31.2 6-.53.844.04.027.05.023.44-.894Zm-8.4-8.4-.85.524.02.029.02.028.81-.581Zm-5.2-15.6.99-.189-.99.189Zm1.6-19.6-.9-.433-.01.034-.02.035.93.364Zm8.4-17.6.91.428v-.009l.01-.009-.92-.41Zm7.2-15.2.9.447-.9-.447Zm7.6-14.8.89.466-.89-.466Zm9.2-17.2.88.476.01-.009-.89-.467Zm13.2-20-.7-.707.7.707Zm15.2-5.2.1-.995-.03-.003-.03-.001-.04.999Zm8 1.6-.28.958.05.016.05.01.18-.984Zm8.8 0 .48.878-.66-1.862.18.984Zm-10.8 10.4-.78-.625-.01.012-.01.013.8.6Zm-12.8 18.8-.84-.533-.01.012-.01.011.86.51Zm-13.2 23.2-.87-.481-.01.01.88.471Zm-18.4.8-.7-.707-.16.16-.08.214.94.333Zm-8.4 13.2.71.707.01-.011.01-.012-.73-.684Zm-14 5.2.1-.995-.02-.002-.02-.001-.06.998Zm-14.4-4-.5.862.03.017.03.015.44-.894Zm-13.6-4.4-.1.995.02.002.02.001.06-.998Zm-7.2 2 .53.848.04-.023.03-.025-.6-.8Zm-4.8 5.2.9.447-.9-.447Zm-5.2-.4.84.555.02-.041.03-.043-.89-.471Zm8.8-12-.7-.707-.02.012-.01.013.73.682Zm14-5.2-.1.995.03.002.02.002.05-.999Zm14 4-.49.872.03.017.04.016.42-.905Zm13.6 4 .17-.986-.03-.004-.02-.003-.12.993Zm7.6-1.6-.65-.759.65.759Zm4.8-6-.7-.707-.1.099-.07.122.87.486Zm-60.1 21.581c-1.6 3.462-2.93 6.252-3.99 8.372l1.79.894c1.07-2.146 2.41-4.957 4.01-8.428l-1.81-.838Zm-3.99 8.372c-1.08 2.161-2.29 4.85-3.63 8.062l1.85.77c1.32-3.188 2.51-5.832 3.57-7.938l-1.79-.894Zm-3.63 8.062c-1.33 3.188-3.19 7.445-5.59 12.775l1.83.82c2.4-5.337 4.27-9.613 5.61-12.825l-1.85-.77Zm-5.59 12.775c-2.4 5.34-5.74 12.945-10 22.813l1.83.794c4.27-9.865 7.6-17.46 10-22.787l-1.83-.82Zm-9.96 22.731c-1.54 2.815-3.22 4.272-4.97 4.709l.49 1.94c2.51-.63 4.57-2.639 6.23-5.691l-1.75-.958Zm-4.97 4.709c-2.01.503-5.11.77-9.36.77v2c4.29 0 7.59-.266 9.85-.83l-.49-1.94Zm-9.45.774c-2.92.265-5.28.396-7.11.396v2c1.91 0 4.35-.136 7.29-.404l-.18-1.992Zm-7.11.396c-2.35 0-4.66.737-6.93 2.152l1.06 1.696c2.01-1.252 3.96-1.848 5.87-1.848v-2Zm-5.5 3.447c9.6-19.21 18.67-38.154 27.21-56.831l-1.82-.832c-8.52 18.656-17.59 37.579-27.18 56.769l1.79.894Zm27.21-56.821a1066.454 1066.454 0 0 1 27.97-55.148l-1.76-.956a1077.658 1077.658 0 0 0-28.02 55.252l1.81.852Zm27.98-55.159c5.06-9.585 9.4-16.138 13.02-19.76l-1.41-1.414c-3.85 3.845-8.31 10.625-13.38 20.24l1.77.934Zm13.02-19.76c3.49-3.494 8.27-5.166 14.45-4.908l.08-1.998c-6.61-.276-11.97 1.519-15.94 5.492l1.41 1.414Zm14.39-4.912c2.6.26 5.21.78 7.82 1.563l.57-1.916a43.446 43.446 0 0 0-8.19-1.637l-.2 1.99Zm7.92 1.589c3.06.555 6.11.555 9.16 0l-.36-1.968a23.38 23.38 0 0 1-8.44 0l-.36 1.968Zm8.5-1.862c-3.11 1.701-6.82 5.302-11.1 10.653l1.56 1.25c4.26-5.316 7.75-8.648 10.5-10.147l-.96-1.756ZM1342.15 200c-4.02 5.36-8.3 11.65-12.84 18.867l1.69 1.066c4.52-7.183 8.77-13.426 12.75-18.733l-1.6-1.2Zm-12.86 18.89a792.88 792.88 0 0 0-13.21 23.229l1.75.962c4.53-8.258 8.92-15.982 13.18-23.171l-1.72-1.02Zm-13.22 23.239c-4.27 8.011-8.14 15.623-11.62 22.837l1.8.868c3.46-7.186 7.32-14.774 11.59-22.763l-1.77-.942Zm59.19 22.824c-1.89 3.773-3.9 8.472-6.04 14.091l1.87.712c2.12-5.581 4.11-10.215 5.96-13.909l-1.79-.894Zm-6.05 14.117c-1.89 5.389-3.24 10.784-4.05 16.182l1.98.296c.79-5.268 2.11-10.541 3.96-15.818l-1.89-.66Zm-4.04 16.174c-.82 5.166-.7 9.72.42 13.631l1.92-.55c-1.01-3.556-1.15-7.802-.37-12.769l-1.97-.312Zm.44 13.692c.74 2.059 1.97 3.653 3.72 4.718 1.74 1.056 3.9 1.546 6.42 1.546v-2c-2.27 0-4.04-.443-5.38-1.254-1.31-.802-2.28-2.008-2.88-3.682l-1.88.672Zm10.14 6.264c5.46 0 10.9-3.015 16.33-8.71l-1.45-1.38c-5.24 5.505-10.2 8.09-14.88 8.09v2Zm16.31-8.693c5.66-5.656 10.9-12.247 15.73-19.766l-1.68-1.082c-4.76 7.414-9.92 13.89-15.46 19.434l1.41 1.414Zm15.73-19.766c4.82-7.495 9.11-14.993 12.86-22.494l-1.79-.894c-3.72 7.432-7.97 14.868-12.75 22.306l1.68 1.082Zm12.85-22.482c4-7.734 7.07-13.739 9.21-18.012l-1.79-.894c-2.13 4.26-5.2 10.256-9.2 17.988l1.78.918Zm9.22-18.04c.78-1.684 1.52-2.651 2.16-3.097.31-.21.57-.289.8-.298.23-.008.5.052.84.244l.99-1.736c-.6-.341-1.24-.531-1.91-.506-.67.025-1.29.262-1.86.652-1.09.754-2.01 2.12-2.83 3.903l1.81.838Zm3.94-3.083c.38.142.61.33.76.542.15.215.27.523.29.977.06.949-.29 2.366-1.2 4.322l1.81.846c.95-2.044 1.47-3.827 1.39-5.278-.04-.746-.24-1.438-.66-2.023-.41-.588-1-1-1.69-1.258l-.7 1.872Zm-.15 5.833c-2.92 6.116-6.65 13.436-11.18 21.962l1.77.938c4.53-8.541 8.27-15.887 11.22-22.038l-1.81-.862Zm-11.19 21.984a195.185 195.185 0 0 1-14.73 24.674l1.64 1.146a197.132 197.132 0 0 0 14.88-24.926l-1.79-.894Zm-14.72 24.66c-5.55 7.674-11.63 14.279-18.23 19.821l1.29 1.532c6.73-5.658 12.92-12.386 18.56-20.179l-1.62-1.174Zm-18.23 19.821c-6.51 5.469-13.49 8.166-20.96 8.166v2c8 0 15.42-2.903 22.25-8.634l-1.29-1.532Zm-20.96 8.166c-3.02 0-6.07-.756-9.15-2.294l-.89 1.788c3.32 1.662 6.67 2.506 10.04 2.506v-2Zm-9.06-2.244c-2.8-1.779-5.51-4.477-8.12-8.137l-1.63 1.162c2.72 3.806 5.61 6.709 8.68 8.663l1.07-1.688Zm-8.09-8.08c-2.04-3.315-3.74-8.376-5.06-15.265l-1.97.378c1.34 6.978 3.1 12.316 5.33 15.935l1.7-1.048Zm-5.06-15.265c-1.31-6.762-.78-13.102 1.54-19.047l-1.86-.728c-2.47 6.322-3.02 13.048-1.65 20.153l1.97-.378Zm1.51-18.978a3032.67 3032.67 0 0 0 8.41-17.605l-1.81-.856c-2.4 5.065-5.2 10.93-8.4 17.595l1.8.866Zm8.42-17.623a394.078 394.078 0 0 1 7.18-15.163l-1.79-.894a415.842 415.842 0 0 0-7.22 15.237l1.83.82Zm7.18-15.163c2.39-4.793 4.92-9.72 7.59-14.781l-1.77-.932a779.342 779.342 0 0 0-7.61 14.819l1.79.894Zm7.59-14.781c2.66-5.063 5.73-10.792 9.19-17.19l-1.76-.952c-3.46 6.402-6.53 12.139-9.2 17.21l1.77.932Zm9.2-17.199c5.06-9.585 9.4-16.138 13.02-19.76l-1.41-1.414c-3.85 3.845-8.31 10.625-13.38 20.24l1.77.934Zm13.02-19.76c3.49-3.494 8.27-5.166 14.45-4.908l.08-1.998c-6.61-.276-11.97 1.519-15.94 5.492l1.41 1.414Zm14.39-4.912c2.6.26 5.21.78 7.82 1.563l.57-1.916a43.446 43.446 0 0 0-8.19-1.637l-.2 1.99Zm7.92 1.589c3.06.555 6.11.555 9.16 0l-.36-1.968a23.38 23.38 0 0 1-8.44 0l-.36 1.968Zm8.5-1.862c-3.11 1.701-6.82 5.302-11.1 10.653l1.56 1.25c4.26-5.316 7.75-8.648 10.5-10.147l-.96-1.756ZM1412.95 200c-4.02 5.36-8.3 11.65-12.84 18.867l1.69 1.066c4.52-7.183 8.77-13.426 12.75-18.733l-1.6-1.2Zm-12.86 18.89a792.88 792.88 0 0 0-13.21 23.229l1.75.962c4.53-8.258 8.92-15.982 13.18-23.171l-1.72-1.02Zm-13.22 23.239c-4.27 8.011-8.14 15.623-11.62 22.837l1.8.868c3.46-7.186 7.32-14.774 11.59-22.763l-1.77-.942Zm-18.46.938c-1.54 4.378-4.26 8.662-8.19 12.849l1.46 1.368c4.08-4.346 6.96-8.862 8.62-13.551l-1.89-.666Zm-8.16 12.826c-3.81 3.801-8.18 5.414-13.2 4.912l-.2 1.99c5.65.565 10.61-1.289 14.81-5.488l-1.41-1.414Zm-13.24 4.909c-4.65-.259-9.32-1.55-14.01-3.896l-.89 1.788c4.9 2.454 9.84 3.829 14.79 4.104l.11-1.996Zm-13.95-3.864c-4.65-2.734-9.33-4.259-14.05-4.536l-.12 1.996c4.36.256 8.74 1.665 13.16 4.264l1.01-1.724Zm-14.01-4.533c-2.91-.292-5.56.444-7.9 2.195l1.2 1.6c1.93-1.449 4.08-2.047 6.5-1.805l.2-1.99Zm-7.83 2.147c-2.28 1.425-4.01 3.294-5.16 5.601l1.79.894c.98-1.959 2.45-3.558 4.43-4.799l-1.06-1.696Zm-5.16 5.601c.07-.146.12-.041-.35.077-.42.104-1.06.17-1.96.17v2c.97 0 1.8-.068 2.45-.23.59-.149 1.31-.444 1.65-1.123l-1.79-.894Zm-2.31.247c-.43 0-.77-.024-1.02-.063a1.757 1.757 0 0 1-.27-.061c-.07-.02-.09-.035-.09-.033.01.009.17.125.2.372.02.187-.06.253.02.14l-1.67-1.11c-.19.287-.39.703-.34 1.19.06.547.41.913.76 1.122.32.196.71.297 1.08.356.39.061.84.087 1.33.087v-2Zm-1.11.271c2.08-3.91 4.96-7.84 8.64-11.789l-1.46-1.364c-3.78 4.051-6.77 8.121-8.95 12.211l1.77.942Zm8.62-11.764c3.8-3.801 8.18-5.414 13.19-4.912l.2-1.99c-5.65-.565-10.61 1.289-14.8 5.488l1.41 1.414Zm13.24-4.908c4.92.258 9.44 1.551 13.56 3.873l.98-1.744c-4.4-2.478-9.22-3.852-14.43-4.127l-.11 1.998Zm13.63 3.906c4.62 2.175 9.26 3.541 13.91 4.088l.23-1.986c-4.42-.52-8.85-1.82-13.29-3.912l-.85 1.81Zm13.86 4.081c3.39.566 6.26.023 8.41-1.827l-1.3-1.518c-1.57 1.35-3.77 1.874-6.78 1.373l-.33 1.972Zm8.41-1.827c1.97-1.685 3.64-3.782 5.03-6.273l-1.75-.972c-1.28 2.309-2.81 4.212-4.58 5.727l1.3 1.518Zm4.86-6.052c.09-.093.3-.229.74-.337.42-.107 1-.17 1.75-.17v-2c-.85 0-1.6.07-2.24.23-.63.158-1.22.422-1.66.863l1.41 1.414Zm2.49-.507c.38 0 .67.016.88.042.23.029.29.062.28.052a.724.724 0 0 1-.36-.644c0-.174.06-.291.08-.334.03-.043.04-.05.02-.023l1.41 1.414c.17-.172.49-.538.49-1.057 0-.65-.46-1.001-.75-1.144-.29-.143-.62-.21-.92-.248-.33-.041-.7-.058-1.13-.058v2Zm205.54 5.8.9.431.01-.008-.91-.423Zm-11.2 21.6-.88-.481v.011l-.01.011.89.459Zm-14.4 24 .82.568-.82-.568Zm-17.2 20 .67.74v-.002l-.67-.738Zm-17.6 8.8.08.997.01-.001-.09-.996Zm-10.4-1.6-.39.919.03.012.02.011.34-.942Zm-9.2-8-.86.515.01.013.01.013.84-.541Zm-4.4-16-1 .038v.042l1-.08Zm4-26 .96.271-1.82-.785.86.514Zm-12.4 18.8.81.59v-.007l.01-.008-.82-.575Zm-16.4 18.8-.69-.723v.004l.69.719Zm-21.6 13.2-.2-.981v.002l.2.979Zm-16.4-2.8-.61.794.02.012.01.011.58-.817Zm-10-16-.97.251.01.017v.016l.96-.284Zm-.8-25.2.99.138v-.004l-.99-.134Zm9.6-32-.91-.414v.01l.91.404Zm23.2-35.6.76.645.01-.007.01-.006-.78-.632Zm21.2-18.4-.51-.86-.01.007.52.853Zm25.6-10.8-.23-.972-.01.002.24.97Zm25.2-.8-.2.981.01.001.19-.982Zm20.8 11.6-.74.674.02.017.01.016.71-.707Zm2.4 8.4-.89-.447-.02.037-.02.039.93.371Zm-6.8 3.2-.96.275.18.616.63.097.15-.988Zm-13.2-13.6-.24.97.01.002.23-.972Zm-20.8 3.6-.47-.881-.01.004-.01.004.49.873Zm-28 23.6.74.678v-.009l-.74-.669Zm-25.2 33.6.86.514-.86-.514Zm-3.6 6.4.88.479-.88-.479Zm-5.2 10.4-.91-.423v.014l-.01.015.92.394Zm-4.8 12-.94-.351v.017l-.01.018.95.316Zm-2.8 11.6.99.152v-.011l-.99-.141Zm1.2 15.2-.86.504.01.026.02.025.83-.555Zm21.2.4.52.853.02-.01.02-.011-.56-.832Zm14.4-13.2.76.651.01-.01.01-.01-.78-.631Zm18.8-26.8-.85-.521-.01.007.86.514Zm16.8-29.2.88.476v-.007l-.88-.469Zm12-19.6-.77-.636-.01.014-.01.015.79.607Zm15.2-6 .1-.995-.01-.001-.01-.001-.08.997Zm8 1.6-.29.958.06.016.05.01.18-.984Zm8.8 0 .71.707 2.26-2.264-3.15.573.18.984Zm-8.8 12-.84-.537-.01.011.85.526Zm-11.2 19.6-.88-.472-.01.012.89.46Zm-10.4 22.4.92.382-.92-.382Zm-6.8 20.8-.98-.212v.016l.98.196Zm4 24 .06-.998-.03-.002h-.03v1Zm14-7.6.73.689-.73-.689Zm14.8-19.2-.83-.562v.011l-.01.01.84.541Zm13.6-22.4.88.472.01-.006v-.007l-.89-.459Zm9.2-18-.88-.474-.01.013v.014l.89.447Zm5.6-4-.39.919.39-.919Zm-.9 6.769c-2.92 6.111-6.65 13.294-11.18 21.55l1.76.962c4.54-8.277 8.28-15.495 11.22-21.65l-1.8-.862Zm-11.19 21.572a219.067 219.067 0 0 1-14.33 23.891l1.64 1.136a221.078 221.078 0 0 0 14.47-24.109l-1.78-.918Zm-14.33 23.891c-5.3 7.679-10.98 14.287-17.05 19.83l1.34 1.476c6.2-5.657 11.98-12.383 17.35-20.17l-1.64-1.136Zm-17.05 19.828c-5.76 5.237-11.43 8.036-17.02 8.544l.18 1.992c6.15-.559 12.21-3.627 18.18-9.056l-1.34-1.48Zm-17.01 8.543c-3.03.253-6.35-.248-9.98-1.545l-.68 1.884c3.84 1.37 7.45 1.935 10.82 1.655l-.16-1.994Zm-9.93-1.522c-3.53-1.514-6.45-4.04-8.75-7.622l-1.68 1.082c2.5 3.885 5.71 6.692 9.65 8.378l.78-1.838Zm-8.73-7.595c-2.3-3.824-3.74-8.991-4.26-15.566l-2 .16c.54 6.758 2.04 12.258 4.54 16.435l1.72-1.029Zm-4.26-15.524c-.26-6.788 1.04-15.342 3.96-25.691l-1.92-.542c-2.95 10.451-4.31 19.23-4.04 26.309l2-.076Zm2.14-26.476c-3.18 5.305-7.3 11.551-12.36 18.738l1.64 1.151c5.07-7.212 9.22-13.5 12.44-18.861l-1.72-1.028Zm-12.35 18.724c-5.03 6.888-10.46 13.11-16.28 18.667l1.38 1.446c5.91-5.643 11.42-11.955 16.52-18.933l-1.62-1.18Zm-16.28 18.671c-7.67 7.404-14.71 11.659-21.11 12.938l.4 1.962c6.93-1.387 14.3-5.933 22.1-13.462l-1.39-1.438Zm-21.11 12.94c-6.18 1.288-11.36.374-15.62-2.638l-1.16 1.634c4.8 3.388 10.57 4.341 17.18 2.962l-.4-1.958Zm-15.59-2.615c-4.32-3.303-7.56-8.429-9.65-15.49l-1.92.568c2.18 7.339 5.61 12.88 10.35 16.51l1.22-1.588Zm-9.64-15.457c-1.83-7.041-2.1-15.304-.78-24.811l-1.98-.276c-1.35 9.693-1.09 18.23.82 25.589l1.94-.502Zm-.78-24.815c1.32-9.753 4.49-20.328 9.53-31.73l-1.83-.808c-5.1 11.531-8.33 22.29-9.68 32.27l1.98.268Zm9.52-31.72c5.29-11.634 12.97-23.424 23.05-35.369l-1.52-1.29c-10.18 12.055-17.97 23.999-23.35 35.831l1.82.828Zm23.07-35.382c5.79-7.109 12.77-13.169 20.94-18.179l-1.04-1.706c-8.36 5.123-15.51 11.33-21.45 18.621l1.55 1.264Zm20.93-18.172c8.46-5.023 16.91-8.583 25.33-10.69l-.48-1.94c-8.64 2.16-17.26 5.8-25.87 10.91l1.02 1.72Zm25.33-10.688c8.67-2.103 16.92-2.36 24.76-.791l.4-1.962c-8.16-1.631-16.71-1.355-25.63.809l.47 1.944Zm24.77-.79c8.06 1.56 14.8 5.32 20.25 11.292l1.48-1.348c-5.75-6.295-12.87-10.268-21.35-11.908l-.38 1.964Zm20.28 11.325c1.4 1.395 2.21 2.686 2.55 3.868.33 1.153.22 2.262-.33 3.378l1.79.894c.77-1.551.93-3.175.46-4.822-.46-1.618-1.51-3.193-3.05-4.732l-1.42 1.414Zm2.18 7.322c-.45 1.135-1.12 1.856-2 2.266-.89.421-2.1.565-3.72.317l-.3 1.976c1.85.286 3.5.163 4.88-.483 1.39-.657 2.39-1.802 3-3.334l-1.86-.742Zm-4.91 3.296c-2.21-7.758-6.86-12.601-13.93-14.297l-.46 1.944c6.26 1.504 10.42 5.727 12.47 12.903l1.92-.55Zm-13.92-14.295c-6.7-1.676-13.89-.394-21.51 3.689l.94 1.762c7.31-3.917 13.99-5.035 20.09-3.511l.48-1.94Zm-21.53 3.697c-9.19 5.136-18.61 13.085-28.25 23.804l1.48 1.338c9.56-10.614 18.81-18.399 27.75-23.396l-.98-1.746Zm-28.24 23.795a205.708 205.708 0 0 0-25.33 33.764l1.72 1.028c7.16-11.94 15.52-23.085 25.08-33.436l-1.47-1.356Zm-25.33 33.764c-.81 1.352-2.02 3.5-3.62 6.435l1.76.958c1.6-2.932 2.79-5.05 3.58-6.365l-1.72-1.028Zm-3.62 6.435c-1.61 2.957-3.35 6.443-5.23 10.456l1.82.846c1.86-3.987 3.58-7.434 5.17-10.344l-1.76-.958Zm-5.24 10.485a284.614 284.614 0 0 0-4.82 12.043l1.88.702c1.59-4.254 3.19-8.239 4.78-11.957l-1.84-.788Zm-4.83 12.078c-1.35 4.05-2.3 7.975-2.84 11.775l1.98.282c.52-3.667 1.44-7.475 2.76-11.425l-1.9-.632Zm-2.84 11.764c-1.07 6.984-.72 12.346 1.33 15.856l1.72-1.008c-1.68-2.89-2.13-7.662-1.07-14.544l-1.98-.304Zm1.36 15.907c2.29 3.442 5.39 5.245 9.23 5.245v-2c-3.09 0-5.6-1.397-7.57-4.355l-1.66 1.11Zm9.23 5.245c3.99 0 8.44-1.563 13.32-4.547l-1.04-1.706c-4.72 2.882-8.8 4.253-12.28 4.253v2Zm13.36-4.568c4.89-3.263 9.76-7.73 14.6-13.381l-1.52-1.302c-4.75 5.549-9.49 9.882-14.19 13.019l1.11 1.664Zm14.62-13.401a232.59 232.59 0 0 0 18.88-26.917l-1.72-1.028a228.245 228.245 0 0 1-18.72 26.683l1.56 1.262Zm18.87-26.91a631.352 631.352 0 0 0 16.83-29.245l-1.76-.952a636.486 636.486 0 0 1-16.77 29.155l1.7 1.042Zm16.83-29.252c4.53-8.513 8.5-14.991 11.91-19.462l-1.58-1.214c-3.52 4.596-7.55 11.184-12.09 19.738l1.76.938Zm11.89-19.433c3.51-4.254 8.24-6.149 14.35-5.639l.16-1.994c-6.69-.557-12.09 1.548-16.05 6.361l1.54 1.272Zm14.33-5.641c2.6.26 5.21.78 7.81 1.563l.58-1.916a43.604 43.604 0 0 0-8.19-1.637l-.2 1.99Zm7.92 1.589c3.05.555 6.11.555 9.16 0l-.36-1.968a23.38 23.38 0 0 1-8.44 0l-.36 1.968Zm8.27-1.691c-2.21 2.218-5.2 6.301-8.93 12.17l1.68 1.074c3.74-5.864 6.62-9.781 8.67-11.83l-1.42-1.414Zm-8.94 12.181c-3.48 5.622-7.22 12.174-11.23 19.654l1.76.944c3.99-7.453 7.72-13.968 11.17-19.546l-1.7-1.052Zm-11.24 19.666a290.399 290.399 0 0 0-10.43 22.478l1.84.764a286.457 286.457 0 0 1 10.37-22.322l-1.78-.92Zm-10.43 22.478c-3.22 7.771-5.51 14.763-6.86 20.97l1.96.424c1.32-6.059 3.56-12.934 6.74-20.63l-1.84-.764Zm-6.86 20.986c-1.6 8.023-2.1 14.172-1.41 18.36.35 2.099 1.02 3.809 2.1 5.005 1.11 1.231 2.57 1.831 4.29 1.831v-2c-1.21 0-2.11-.4-2.81-1.169-.72-.804-1.29-2.094-1.6-3.995-.64-3.812-.2-9.663 1.39-17.64l-1.96-.392Zm4.92 25.194c4.72.295 9.66-2.51 14.79-7.909l-1.45-1.378c-5.01 5.267-9.4 7.529-13.22 7.291l-.12 1.996Zm14.79-7.909c5.11-5.387 10.08-11.839 14.91-19.348l-1.68-1.082c-4.77 7.424-9.67 13.773-14.68 19.052l1.45 1.378Zm14.9-19.328c5.08-7.493 9.63-14.99 13.65-22.489l-1.76-.944c-3.98 7.434-8.5 14.871-13.55 22.31l1.66 1.123Zm13.66-22.502c4-7.734 7.07-13.739 9.21-18.012l-1.79-.894c-2.13 4.26-5.2 10.256-9.2 17.988l1.78.918Zm9.19-17.985c.91-1.682 1.75-2.725 2.5-3.26.69-.495 1.26-.537 1.83-.295l.78-1.838c-1.3-.558-2.6-.333-3.77.505-1.12.798-2.14 2.155-3.1 3.94l1.76.948Zm4.33-3.555c.29.124.46.288.58.485.12.208.21.522.21.996 0 .978-.39 2.417-1.31 4.377l1.82.846c.95-2.04 1.49-3.801 1.49-5.223 0-.726-.14-1.412-.49-2.004-.35-.603-.87-1.039-1.52-1.315l-.78 1.838Z" fill="#fff" fill-opacity=".6" mask="url(#a)"/></svg>